<?xml version="1.0" encoding="UTF-8"?>
<!-- Created with Inkscape (http://www.inkscape.org/) -->
<svg width="138mm" height="96.29mm" version="1.1" viewBox="0 0 138 96.29" xml:space="preserve" xmlns="http://www.w3.org/2000/svg"><g transform="translate(-43.94 -109.8)"><path d="m79.38 205.9c-4.936-0.7078-9.781-2.734-13.34-6.292 2.515-3.998 5.404-9.289 9.533-4.056 4.235 2.194 12.65 4.106 14.58-1.6-0.9556-6.344-9.859-5.085-14.31-7.99-5.225-1.954-8.24-7.3-7.435-12.74 0.1228-3.499 2.77-6.793 5.618-8.668 2.42-2.347 3.472 4.767 5.495-0.1226 1.467-3.274 7.711-4.195 7.693 0.3698-1.45-3.823-0.2092-11.66-4.885-12.45-0.9309 4.087 4.915 9.332-1.527 10.11-1.89 3.446-5.617 3.73-4.49-1.266 3.158-6.238-4.19-7.975-7.831-3.688-8.718 5.079-17.52 13.29-17.91 24.03-1.213 7.221 9.633 11.72 12.73 4.424 3.654-5.78-6.209-12.28-8.764-5.441-1.467 3.912 2.805-5.605 6.236-1.616 7.004 4.972-3.731 14.36-8.154 7.228-3.669-4.512-0.6673-11.76 4.973-12.73 7.405-1.273 13.15 6.916 11.1 13.7-1.254 7.338-10.03 11.48-16.55 8.046-7.022-3.685-8.781-12.25-8.05-19.53 1.119-12.27 8.039-23.09 14.74-33.08 5.232-7.21 10.81-14.49 18.1-19.71 2.663-2.961 6.41-4.912 9.904-6.824 3.777-0.0147 3.727-4.199 8.29-2.612 2.477 0.6872 0.6187-3.735 4.333-2.02 2.849 1.097 4.193 0.6244 4.793-1.126 2.911-0.2562 5.615 2.604 6.767-0.3272 2.758 0.7016 5.806 4.87 7.062 1.179 2.575 0.3808 5.095 6.357 6.225 2.176 2.763 1.588 3.5 4.796 5.918 3.462 2.489 1.355 3.954 6.351 3.561 6.917 0.0603-3.732 0.0606-7.464 0.0905-11.2 4.49-3.227 10.08 2.897 14.25 4.8 4.283 5.087 11.27 5.122 15.72 9.645 2.795 4.772 7.506 9.07 8.72 14.43-0.9622 2.773-4.123 1.177-6.279 1.496-7.082 0.235-14.17-2.435-21.18-0.9393-6.205 2.465 4.347-0.44 6.772 0.5079 6.266 0.8726 12.77 0.7617 18.92 1.803-2.167 5.207-8.398 7.427-13.45 9.218-6.974 2.212-14.49 1.739-21.59 0.492 0.7662 4.303 7.379 3.823 7.834 7.124-2.221 0.6013-4.367 0.8064-2.465 2.142-5.238 13.97-10.79 27.83-16.51 41.61-4.381 2.134-11.32 1.348-11.42-5.184-4.68-12.09-9.18-24.24-13.79-36.35 3.771-2.092 12.7-2.442 12.42 4.67 2.797 7.644 5.393 15.37 8.298 22.97 3.084-6.448 5.015-13.64 7.698-20.35 1.895-2.462 1.064-9.042 5.494-7.974 1.467 2.514 2.27 6.032 1.02 1.105-0.0626-3.895-4.543-5.38-6.585-8.327-2.758-1.29-6.69 1.116-9.868 0.5866-2.994 0.3855-5.026-8.366-1.842-8.452 0.9299-0.0758 6.065-0.2196 3.735-0.2427-1.938-0.03-3.877-0.06-5.815-0.09 0.1918 3.858 1.02 7.679 2.59 11.22 3.635-4.4e-4 7.748 3.206 4.105 4.638 1.61 2.017 5.906 8.844 0.0254 6.328-6.288-1.763-10.8-7.145-12.44-13.34-1.27-4.815-4.854-11.73 0.2423-15.4 3.374-1.332 9.093 0.0175 11.43-0.7401-4.877-0.01-14.09-2.388-14.24 5.058-1.678 3.144 4.473 10.82 0.1227 10.97-4.128 0.6546-10.99-2.693-13.34-1.369-1.705 4.338 9.748 5.805 4.433 7.484-4.74-2.349-4.921 10.82-3.404 3.246 1.96-3.183 8.184 2.588 3.332 5.159-2.236 6.654-7.442-0.6203-12.15 0.0844-8.182-2.012-8.306 8.644-0.5302 8.384 6.013 1.781 13.7 3.647 15.39 10.71 2.483 7.797-4.236 15.89-12.12 16.14-2.663 0.28-5.364 0.4611-8.034 0.1908zm-20.69-20.41c5.493-2.233-3.147-7.682-1.684-2.404 5.033 0.3475-1.173 3.524-2.449 0.0699 0.2329 1.76 2.469 3.214 4.133 2.334zm33.39-15.06c-1.469-1.153-0.9451 1.074 0 0zm-2.95-2.377c-3.586-4.218 3.017 4.623 0 0zm49.29-2.108c2.366-6.282-0.0565 2.172-2.381 1.667-1.749-0.6198 2.39 2.505 2.381-1.667zm-46.97-17.06c-0.8288-5.731-5.841-10.76-11.93-8.931 2.82-0.216 10.86 1.316 10.96 7.287 0.6109 2.161 2.293 6.594 0.9699 1.645zm74.8-10.5c-1.663-0.6672 0.4223 1.692 0 0zm-7.154-5.5c1.993-4.785-9.518-7.77-9.425-1.134 2.591 1.438 5.206-2.518 6.894 1.174 0.8436 0.081 1.688-4e-3 2.531-0.0405zm-8.004-2.795c1.858-1.741 0.8265 0.3966 0 0zm5.16-0.1996c-3.242-0.7319-4.244-1.448-0.398-0.5679 0.5178-0.2208 1.801 1.539 0.398 0.5679zm7.285 1.663c-2.467-3.921-6.574-7.745-11.52-7.278 4.842 0.3462 9.498 5.31 11.52 7.278zm-5.875 74.32c-9.024-1.048-15.78-9.838-15.13-18.77 0.0233-8.21-0.4862-16.48 0.138-24.65 4.068-0.1409 11.42-2.038 9.458 4.637 0.3138 7.903-0.5962 15.95 0.7558 23.76 1.751 7.87 14.34 8.857 17.52 1.601 2.15-5.662 0.8006-12 1.279-17.93 0.8357-4.596-2.617-14.15 5.092-12.33 7.521-1.792 4.371 7.152 4.967 11.67-0.1615 5.632 0.1579 11.33-0.2893 16.92-1.283 7.353-6.752 14.02-14.43 15.08-3.095 0.3517-6.261 0.3264-9.358 0.0127z" fill="#afd3d1"/><path d="m79.24 205.8c-4.202-0.9254-16.23-3.563-10.93-9.435 3.075-8.071 8.476 2.458 14.25 1.153 6.128 2.346 11.26-6.648 3.497-8.19-6.403-2.162-15.09-3.459-17.37-10.95-1.362-5.498 0.8768-12.48 6.609-14.33 3.056 6.286 6.992-6.899 11.25-1.255 1.496 4.243-0.7176-5.973-1.437-8.008-0.2326-4.258-4.776-2.449-2.434 1.274 1.534 3.399 1.707 5.273-2.128 6.527-2.107 4.014-5.597 2.318-4.107-1.808 2.78-5.081-3.487-8.104-6.947-3.973-8.962 4.96-17.84 13.02-18.92 23.77-1.54 6.757 7.584 12.69 12.1 6.455 4.552-5.114-3.627-13.62-7.85-7.395-2.217 6.272 2.702-5.711 6.267-0.5432 5.041 3.853-0.9686 12.24-6.298 8.726-5.977-3.05-4.372-12.82 2.056-14.31 7.269-1.983 13.74 5.994 11.95 12.86-0.8948 7.54-9.937 12.34-16.66 8.693-7.309-3.811-8.79-12.8-8.012-20.27 1.704-13.13 9.233-24.63 16.77-35.19 5.066-6.448 10.2-13.28 17.29-17.61 1.33-3.227 5.736-3.509 7.85-5.881 4.364 0.0803 4.751-4.168 9.492-2.784 1.808 0.1592 0.5212-3.65 3.927-2.041 2.851 1.095 4.209 0.6287 4.793-1.126 2.911-0.2562 5.615 2.604 6.767-0.3272 2.586 0.3428 5.607 5.087 6.838 1.239 3.27 0.9646 5.012 5.674 7.112 2.397 2.156 1.944 3.047 4.393 5.072 3.069 4.79 3.483 2.719 9.775 3.793 14.77 0.9715-4.425 0.3659-10.6 0.5171-15.71-0.878-7.973 8.644-1.181 11.93 0.7568 4.297 2.271 7.34 6.812 12.42 7.294 5.922 1.977 7.912 8.717 11.62 13.15 4.125 3.543 0.4146 7.36-4.005 5.677-7.194 0.1894-14.4-2.552-21.52-1.008-2.126 1.746-10.19 0.645-3.645 2.196 5.75-1.224 11.67-1.299 17.5-0.3711 3.507 0.9605 9.574-0.4758 11.72 1.508-6.399 8.046-17.65 10.39-27.47 9.678-2.969 0.0287-10.35-2.561-5.469 2.122 1.242 1.854 9.747 3.749 3.637 4.662-2.665 1.778-4.96 9.946-6.44 2.614 0.0222-4.452-5.106-6.121-7.389-9.488-4.035 0.0249-10.99 3.845-11.87-1.717-1.703-3.724-0.3298-5.9 3.416-5.093 6.317-0.3784-2.257-0.6348-4.762-0.5292 0.2896 5.205 0.2247 12.85 7.067 12.9 2.755 1.816-3.849 1.865 0.3026 4.814 2.28 2.282 3.632 6.948-1.432 4.262-6.682-2.157-10.8-8.441-12.36-15.01-2.662-5.363-2.833-15.97 5.849-14 3.023-0.0277 8.997-0.1573 10.04-0.7435-5.656 0.7944-12.8-2.027-17.29 2.218-3.483 4.167 2.941 12.15-0.666 14.03-4.007 1.183-11.62-3.098-13.07-0.9668-1.742 4.131 9.7 5.683 4.399 7.339-4.879-2.188-4.834 11.04-3.339 2.975 2.569-2.571 7.707 3.093 3.224 5.51-2.195 6.716-7.523-0.8678-12.09 4e-3 -8.183-2.014-8.313 8.643-0.5337 8.385 6.013 1.781 13.7 3.647 15.39 10.71 2.488 7.812-4.257 15.9-12.15 16.15-2.696 0.2831-5.432 0.4527-8.135 0.1654zm-20.56-20.39c5.655-2.424-3.546-7.579-1.529-2.301 4.351 0.9331-1.68 2.864-2.6-0.01 0.2469 1.748 2.473 3.187 4.129 2.311zm33.39-15.06c-1.469-1.153-0.9451 1.074 0 0zm-2.95-2.377c-3.586-4.218 3.017 4.623 0 0zm2.408-18.96c-0.8092-5.568-5.401-10.82-11.5-9.272-1.566 0.9165 7.948-0.4037 8.675 3.476 1.235 1.185 4.114 12.11 2.821 5.795zm75.02-10.42c-1.915-2.804-1.346 2.587 0 0zm-9.704-0.769c5.077-2.303 3.724-10.79-1.927-11.12-4.052-2.371-7.869 6.197-6.463 5.677-0.6333-3.463 6.342 3.576 2.649 2.511 1.324 3.318 10.21-1.009 4.144 3.085-3.183 0.0178-5.531-0.3553-0.9192 0.5093l1.298-0.2029zm-3.78-4.508c-0.7952-6.425 6.324 2.027 0 0zm13.43 1.758c-3.558-5.169-7.664-11.64-14.78-11.48-2.317-0.4872-8.249 0.3679-2.487 0.7201 6.56-0.0636 11.57 4.089 15.18 9.149 0.0638-0.0169 2.522 2.847 2.093 1.61zm-10 70.05c-8.319-1.476-13.91-9.567-13.67-17.78-0.3544-8.217-0.1728-16.44-0.2177-24.67 3.004-0.5027 6.09-0.1109 9.128-0.1424 0.0882 9.187 0.1764 18.37 0.2646 27.56 1.6 4.186 5.204 7.923 10.05 7.34 5.71 0.737 10.12-4.787 9.762-10.18 0.5108-8.21-0.3756-16.57 0.5788-24.69 3.995-0.0947 11.04-1.845 9.085 4.659-0.2404 8.734 0.7848 17.65-1.127 26.23-2.039 7.546-9.607 12.78-17.37 12.23-2.18 0.0994-4.374 0.0656-6.482-0.5686zm-40.82-0.1869c-5.551-13.81-10.77-27.77-15.92-41.73 3.165-1.466 11.66-2.362 11.56 3.965 3.049 8.021 5.491 16.32 8.932 24.16 3.963-9.402 7.004-19.18 10.77-28.67 3.685-1.17 2.635 3.381 4.657 5.251 2.435 3.136 5.566-9.336 4.727-3.199-5.44 13.38-10.58 26.88-16.12 40.22-2.785 0.4971-5.825 0.4959-8.611 0z" fill="#e1a59c"/><path d="m156.5 205.2c-8.319-1.476-13.91-9.567-13.67-17.78-0.3544-8.217-0.1728-16.44-0.2177-24.67 3.004-0.5027 6.09-0.1109 9.128-0.1424 0.0882 9.187 0.1764 18.37 0.2646 27.56 1.6 4.186 5.204 7.923 10.05 7.34 5.71 0.737 10.12-4.787 9.762-10.18 0.5108-8.21-0.3756-16.57 0.5788-24.69 3.995-0.0947 11.04-1.845 9.085 4.659-0.2404 8.734 0.7848 17.65-1.127 26.23-2.039 7.546-9.607 12.78-17.37 12.23-2.18 0.0994-4.374 0.0656-6.482-0.5686zm-78.45 0.113c-4.055-1.1-14.75-3.701-9.174-9.074 3.13-6.632 8.366 3.302 13.88 1.703 6.762 2.335 11.41-7.463 3.332-8.994-6.302-1.944-14.71-3.334-17-10.6-1.663-5.421 1.066-11.61 6.124-14.12 3.128 6.916 5.543-4.832 10.55-1.758 0.5493 3.357 6.382 13.25 7.546 5.121-0.2379-6.376 8.476-0.3309 3.113 2.708-2.727 6.402-9.009-2.534-14.3 3e-3 -7.825 0.2709-3.676 9.833 2.462 9.08 5.85 1.807 13.6 3.792 14.69 10.92 1.48 6.229-2.571 12.74-8.721 14.37-4.042 0.9849-8.375 1.043-12.5 0.6413zm37.63-0.2999c-5.551-13.81-10.77-27.77-15.92-41.73 3.165-1.466 11.66-2.362 11.56 3.965 3.049 8.021 5.491 16.32 8.932 24.16 3.963-9.402 7.004-19.18 10.77-28.67 3.685-1.17 2.635 3.381 4.657 5.251 2.435 3.136 5.566-9.336 4.727-3.199-5.44 13.38-10.58 26.88-16.12 40.22-2.785 0.4971-5.825 0.4959-8.611 0zm-60.89-9.339c-8.135-2.051-11.17-11.39-10.43-18.95 1.066-13.52 8.791-25.39 16.39-36.22 5.181-6.969 10.89-13.87 18.13-18.7 0.9073-2.921 5.771-2.333 6.646-5.122 5.017 0.4055 5.029-4.55 10.3-2.921 2.535 0.7982-0.06241-3.73 3.893-1.94 2.855 1.086 4.546 0.7297 5.39-1.279 2.785 0.8172 5.306 2.249 6.456-0.05 2.597 1.174 5.636 4.572 6.785 1.177 2.532 1.189 4.67 5.168 6.729 2.397 1.749 2.866 3.263 3.778 4.961 3.031 1.774 1.921 3.816 3.574 3.231 6.435 0.01 3.003 0.7473 11.94 1.011 4.361 0.7044-5.276-0.9661-11.26 0.8395-16.16 6.08 0.4999 11.12 4.751 16 8.084 3.734 4.441 10.93 3.029 13.62 8.817 1.811 4.517 8.952 9.018 6.515 13.81-8.119 0.8223-16.18-1.569-24.29-1.383-1.868 1.05-8.398 1.611-8.224 1.972 5.004 1.743 10.48-1.574 15.78-0.1059 4.911 1.213 12.32-0.0987 15.85 1.943-6.399 8.046-17.65 10.39-27.47 9.678-2.969 0.0287-10.35-2.561-5.469 2.122 1.242 1.854 9.747 3.749 3.637 4.662-2.665 1.778-4.96 9.946-6.44 2.614 0.0222-4.452-5.106-6.121-7.389-9.488-4.035 0.0249-10.99 3.845-11.87-1.717-1.837-3.908-0.144-5.855 3.608-5.124 2.416 0.0329 9.577-0.5562 3.464-0.7094-4.057 0.0606-11.59-1.611-8.261 5.078 0.0569 5.207 3.312 7.392 7.668 8.649 0.7014 1.415-3.961 0.8933-0.9854 3.357 2.254 2.486 4.448 7.355-0.7575 4.757-6.086-1.913-10.19-7.351-11.66-13.4-1.581-4.589-4.877-14.19 2.567-14.9 4.987-0.2265 10.41 0.6338 15.05-1.568-5.938 1.038-12.19-0.3872-18.04 1.02-6.186 3.286 0.2875 12.37-1.894 15.68-5.681-0.8741-14.79 0.3352-14.59-7.777-0.9898-7.083-8.548-10.54-14.88-7.635-2.452 0.4019-7.661 3.798-1.911 1.535 4.973-1.762 12.75-2.278 14.72 3.912 2.838 4.432 0.8026 12.36 6.801 13.98 5.558 3.285-5.133 0.5481-3.638 5.443 0.1252 4.068-2.309 5.531-4.094 1.409-2.901-4.216-0.4948-14.2-6.579-14.48-1.13 3.958 4.515 9.203-1.455 10.13-1.969 3.754-5.237 2.911-3.632-1.37 2.146-2.479-1.303-8.628-4.455-5.855-10.17 5.021-20.55 13.36-22.26 25.24-1.104 5.498 4.094 12.1 9.927 9.493 5.177-1.81 5.742-10.49 0.2438-12.22-8.426-3.489-7.742 12.91-0.2308 7.47 3.884-4.598-6.814-6.048-2.907-1.135 2.647 2.118-5.505-1.682-1.249-4.008 7.017-5.145 9.506 9.649 1.121 8.52-6.826-0.7788-7.583-11.09-1.586-13.66 6.603-3.566 14.33 3.661 13.1 10.55-0.2028 6.795-7.098 12.37-13.78 10.53zm111.8-57.01c-1.915-2.804-1.346 2.587 0 0zm-9.704-0.769c5.077-2.303 3.724-10.79-1.927-11.12-4.052-2.371-7.869 6.197-6.463 5.677-0.6333-3.463 6.342 3.576 2.649 2.511 1.324 3.318 10.21-1.009 4.144 3.085-3.183 0.0178-5.531-0.3553-0.9192 0.5093l1.298-0.2029zm-3.78-4.508c-0.7952-6.425 6.324 2.027 0 0zm13.43 1.758c-3.558-5.169-7.664-11.64-14.78-11.48-2.317-0.4872-8.249 0.3679-2.487 0.7201 6.56-0.0636 11.57 4.089 15.18 9.149 0.0638-0.0169 2.522 2.847 2.093 1.61z" fill="#8ea2ad"/><path d="m160.3 205.6c-7.899-0.164-15.44-5.666-16.85-13.64-0.8993-9.682-0.322-19.44-0.4794-29.16 2.654 0.5759 8.072-1.726 8.603 1.356 0.1685 8.598-0.1609 17.22 0.4053 25.8 1.322 7.645 11.81 10.35 17.14 5.1 4.614-5.217 2.448-12.71 3.079-19.03 0.0474-4.41 0.0947-8.819 0.1421-13.23h8.731c-0.155 9.562 0.395 19.17-0.4048 28.69-1.333 7.395-7.666 13.35-15.2 13.92-1.708 0.2398-3.445 0.3309-5.165 0.1788zm-82.29-0.3612c-4.055-1.1-14.75-3.701-9.174-9.074 3.13-6.632 8.366 3.302 13.88 1.703 6.762 2.335 11.41-7.463 3.332-8.994-6.302-1.944-14.71-3.334-17-10.6-1.663-5.421 1.066-11.61 6.124-14.12 3.128 6.916 5.543-4.832 10.55-1.758 0.5493 3.357 6.382 13.25 7.546 5.121-0.2379-6.376 8.476-0.3309 3.113 2.708-2.727 6.402-9.009-2.534-14.3 3e-3 -7.825 0.2709-3.676 9.833 2.462 9.08 5.85 1.807 13.6 3.792 14.69 10.92 1.48 6.229-2.571 12.74-8.721 14.37-4.042 0.9849-8.375 1.043-12.5 0.6413zm37.4-1.219c-5.222-13.69-10.64-27.34-15.53-41.15 3.168-0.3424 6.37-0.1513 9.554-0.2012 3.643 9.688 6.77 19.58 10.62 29.18 2.574-4.036 3.655-9.729 5.677-14.38 2.166-4.769 2.976-10.52 6.077-14.65 2.761-0.2805 3.588 10.18 6.58 4.055 1.182-2.6 3.164-5.903 1.245-0.9329-5.197 12.96-10.35 25.94-15.48 38.93-2.776 0.0486-5.553 0.0972-8.329 0.1458-0.1397-0.333-0.2794-0.666-0.419-0.9989zm-60.65-8.42c-8.135-2.051-11.17-11.39-10.43-18.95 1.066-13.52 8.791-25.39 16.39-36.22 5.181-6.969 10.89-13.87 18.13-18.7 0.9073-2.921 5.771-2.333 6.646-5.122 5.017 0.4055 5.029-4.55 10.3-2.921 2.535 0.7982-0.06241-3.73 3.893-1.94 2.855 1.086 4.546 0.7297 5.39-1.279 2.785 0.8172 5.306 2.249 6.456-0.05 2.597 1.174 5.636 4.572 6.785 1.177 2.532 1.189 4.67 5.168 6.729 2.397 1.912 2.63 3.118 4.108 5.309 3.39 4.322 4.012 2.131 10.25 3.364 15.38 1.019 2.307 0.4668-6.727 0.7179-8.524 0.8389-3.975-2.526-15.63 5.086-11.24 5.611 2.386 10.47 6.148 15.26 9.823 6.488 0.5078 10.25 5.847 13.24 11.03 3.34 3.051 6.3 10.27-1.157 8.404-6.984 0.1883-13.9-2.091-20.85-1.229-2.092 1.478-11.28 1.791-4.518 2.737 5.932-1.673 12.02-0.8911 18.04-0.1771 3.97 0.6076 15.2-0.7235 7.375 4.495-8.781 6.513-20.42 7.44-30.85 5.286-2.049 1.586 3.562 5.905 6.293 6.186 1.849 1.826-4.959 1.887-4.436 5.343-3.358 5.706-2.246-5.631-6.177-6.211-2.108-1.068-3.216-4.999-5.862-4.319-4.254 0.5498-11.45 3.239-10.72-3.893-1.251-5.258 9.756-1.236 10.47-3.559-4.363 0.5749-14.89-2.982-11.59 4.836 0.1176 4.734 2.602 8.085 7.282 8.649-3.766 1.875 2.198 6.213 1.787 8.882-7.175-0.6532-12.77-6.55-14.47-13.34-1.613-4.746-5.349-14.68 2.342-15.55 5.226-0.1503 10.78 0.5085 15.69-1.649-5.973 0.4088-12.01-0.0602-17.96 0.5222-7.908 2.516 0.0537 13.63-3.438 16.03-6.17-0.1559-14.3-0.3632-14.05-8.465-1.271-7.239-9.508-9.34-15.5-6.406-2.67 0.6014-6.026 3.338-1.002 1.219 4.973-1.762 12.75-2.278 14.72 3.912 2.838 4.432 0.8026 12.36 6.801 13.98 5.558 3.285-5.133 0.5481-3.638 5.443 0.1252 4.068-2.309 5.531-4.094 1.409-2.901-4.216-0.4948-14.2-6.579-14.48-1.13 3.958 4.515 9.203-1.455 10.13-1.969 3.754-5.237 2.911-3.632-1.37 2.146-2.479-1.303-8.628-4.455-5.855-10.17 5.021-20.55 13.36-22.26 25.24-1.104 5.498 4.094 12.1 9.927 9.493 5.177-1.81 5.742-10.49 0.2438-12.22-8.426-3.489-7.742 12.91-0.2308 7.47 3.884-4.598-6.814-6.048-2.907-1.135 2.647 2.118-5.505-1.682-1.249-4.008 7.017-5.145 9.506 9.649 1.121 8.52-6.826-0.7788-7.583-11.09-1.586-13.66 6.603-3.566 14.33 3.661 13.1 10.55-0.2028 6.795-7.098 12.37-13.78 10.53zm111.7-56.3c1.164-3.999-3.997 0.5401 0 0zm-9.735-1.192c5.733-2.428 3.748-12.15-2.65-11.68-10.19-0.4615-6.2 16.32 2.65 11.68zm-6.611-1.756c-2.838-3.336 0.8242-1.178 0.6768 0.5555zm3.019-3.171c-0.6223-5.435 5.627 1.69 0 0zm13.82 2.047c-3.832-4.827-7.277-11.59-14.32-11.75-2.409-0.6822-11.38 5e-3 -4.111 0.9692 5.997 0.1331 11.35 3.071 14.69 8.045 0.5504 0.8541 6.443 6.419 3.738 2.732zm-51.93-0.3413c0.9034-0.9217-2.135 0.9863 0 0z" fill="#e79c59"/><path d="m160.3 205.6c-7.899-0.164-15.44-5.666-16.85-13.64-0.8993-9.682-0.322-19.44-0.4794-29.16 2.654 0.5759 8.072-1.726 8.603 1.356 0.1685 8.598-0.1609 17.22 0.4053 25.8 1.322 7.645 11.81 10.35 17.14 5.1 4.614-5.217 2.448-12.71 3.079-19.03 0.0474-4.41 0.0947-8.819 0.1421-13.23h8.731c-0.155 9.562 0.395 19.17-0.4048 28.69-1.333 7.395-7.666 13.35-15.2 13.92-1.708 0.2398-3.445 0.3309-5.165 0.1788zm-82.29-0.3606c-4.054-1.101-14.75-3.701-9.174-9.075 2.886-6.461 7.444 2.512 12.47 1.551 5.202 2.277 13.6-4.092 6.704-8.043-6.431-2.978-15.67-3.16-18.66-10.79-1.68-5.159 0.6774-11.72 5.698-14.09 3.365 6.08 5.499-3.977 9.883-2.298 2.388 1.352 2.18 6.408 5.016 8.275-4.482-2.245-15.11-1.678-12.1 5.647 5.408 4.086 13.38 3.441 18.44 8.256 5.957 5.94 3.046 17.42-5.163 19.65-4.188 1.281-8.792 1.245-13.12 0.9098zm37.4-1.22c-5.222-13.69-10.64-27.34-15.53-41.15 3.168-0.3424 6.37-0.1513 9.554-0.2012 3.643 9.688 6.77 19.58 10.62 29.18 2.574-4.036 3.655-9.729 5.677-14.38 2.166-4.769 2.976-10.52 6.077-14.65 2.761-0.2805 3.588 10.18 6.58 4.055 1.182-2.6 3.164-5.903 1.245-0.9329-5.197 12.96-10.35 25.94-15.48 38.93-2.776 0.0486-5.553 0.0972-8.329 0.1458-0.1397-0.333-0.2794-0.666-0.419-0.9989zm-60.65-8.42c-8.135-2.051-11.17-11.39-10.43-18.95 1.05-13.45 8.698-25.25 16.26-36.01 4.656-6.221 9.937-12.12 16.03-16.95 2.89-1.992 4.706-4.697 8.514-5.31 0.5969-2.715 6.295-1.648 6.381-4.377 3.339 0.5678 5.697-0.0358 6.313-2.127 3.213 0.6977 6.966 1.662 7.284-1.03 2.457 0.4256 6.031 2.957 6.375-0.0363 2.432 1.016 5.928 5.097 6.774 1.088 2.27 2.353 4.949 4.295 7.045 2.94 1.543 4.221 4.855 1.996 6.432 5.32-3.824 5.738-9.459 10.47-15.69 13.51-5.449 3.181 6.445-2.184 7.457-4.262 3.368-1.956 6.659-7.85 9.258-8.6 0.5791 3.402 0.2578 12 1.458 12.2 0.4576-6.91-0.0959-13.9 0.7215-20.77 5.19-0.4234 9.856 3.763 14.19 6.316 3.812 4.777 10.52 4.304 14.35 8.732 2.36 4.801 8.652 9.221 8.052 14.58-6.271 1.167-12.99-0.3743-19.37-0.9138-4.385-1.207-10.54 1.719-13.33 2.157 5.935 1.289 12.38-1.672 18.58 0.2839 3.942 0.8723 10.05-0.2017 12.64 1.585-7.456 8.544-20.06 10.59-30.81 8.878-4.409-1.718-4.604 0.7212-1.575 3.413 1.626 1.469 8.834 3.099 2.795 4.005-2.303 2.281-4.425 9.075-5.659 2.284-0.207-4.096-4.769-5.775-7.014-8.819-2.755-1.27-6.637 1.052-9.824 0.6322-3.594-0.3981-4.692-9.696 0.9297-7.577 2.244 0.27 11.11-0.8924 4.398-1.281-4.558-0.3482-13-1.746-9.388 5.552 0.4928 4.538 2.783 7.837 7.43 8.333-3.763 1.886 2.191 6.215 1.785 8.89-7.248-0.6839-13.01-6.675-14.52-13.64-1.382-4.676-5.186-13.43 1.722-15.1 6.078 0.6817 12.24-0.4429 18.1-0.7449 5.021 0.836-2.011 9.443 2.006 4.343 0.8969-6.732-6.92-5.537-11.26-5.19-5.103 0.2563-13.91-1.753-14.12 5.836-0.9351 4.077 5.059 12.58-2.59 10.37-5.749-7e-3 -11.31-1.616-11.23-8.329-1.31-7.497-9.961-9.351-16-6.211-2.681 0.7855-7.169 3.501-1.554 1.712 5.027-1.501 13.13-3.245 15.37 3.28 2.92 4.583 0.8167 12.65 7.132 14.36 3.447 2.08-5.549 0.8248-4.029 5.257-0.2223 2.995-0.992 5.963-3.15 1.906-2.685-4.595-2.097-10.61-4.561-15.21-7.319-1.325 3.185 9.833-3.212 9.504-1.97 2.528-5.614 5.279-4.588-0.1135 2.24-2.349-0.1914-8.284-3.4-6.857-10.63 4.913-21.5 13.29-23.18 25.65-1.526 6.465 6.245 13.38 11.86 8.409 5.429-3.906 1.111-14.25-5.648-11.1-6.266 2.252 0.1605 13.01 4.208 6.753 2.404-5.523-7.903-3.791-2.781-0.3335-1.402 2.573-4.996-6.014 0.713-5.159 9.576 1.068 0.2341 15.16-5.32 7.384-4.257-4.567-0.2575-12.69 5.893-12.46 7.179-0.1467 11.55 8.326 8.945 14.58-1.632 5.36-7.706 8.917-13.16 7.419zm111.7-56.3c1.164-3.999-3.997 0.5401 0 0zm-9.735-1.192c5.733-2.428 3.748-12.15-2.65-11.68-10.19-0.4615-6.2 16.32 2.65 11.68zm-6.611-1.756c-2.838-3.336 0.8242-1.178 0.6768 0.5555zm3.019-3.171c-0.6223-5.435 5.627 1.69 0 0zm13.82 2.047c-3.832-4.827-7.277-11.59-14.32-11.75-2.409-0.6822-11.38 5e-3 -4.111 0.9692 5.997 0.1331 11.35 3.071 14.69 8.045 0.5504 0.8541 6.443 6.419 3.738 2.732zm-40.53-12.78c1.039-2.94-4.827 0.2483 0 0zm-18.59-4.747c2.806-3.329-7.971-0.862-1.487 0.8473 0.6902 0.7341 1.062-0.7321 1.487-0.8473zm-14.97 54.71c-1.493-1.639 1.317-5.913 1.839-7.673 6.169 0.5378 0.7622 8.273-1.839 7.673z" fill="#f49c30"/><path d="m160.3 205.6c-7.899-0.164-15.44-5.666-16.85-13.64-0.8993-9.682-0.322-19.44-0.4794-29.16 2.654 0.5759 8.072-1.726 8.603 1.356 0.1685 8.598-0.1609 17.22 0.4053 25.8 1.322 7.645 11.81 10.35 17.14 5.1 4.614-5.217 2.448-12.71 3.079-19.03 0.0474-4.41 0.0947-8.819 0.1421-13.23h8.731c-0.155 9.562 0.395 19.17-0.4048 28.69-1.333 7.395-7.666 13.35-15.2 13.92-1.708 0.2398-3.445 0.3309-5.165 0.1788zm-82.29-0.3606c-4.054-1.101-14.75-3.701-9.174-9.075 2.886-6.461 7.444 2.512 12.47 1.551 5.202 2.277 13.6-4.092 6.704-8.043-6.431-2.978-15.67-3.16-18.66-10.79-1.74-5.215 0.7388-11.61 5.686-14.1 2.537 5.587 5.237-0.9668 7.637-2.373 3.253-0.8116 3.82 1.738 4.568 4.391 0.4286 1.815 5.098 5.377 0.3452 3.407-5.515-3.679-15.37 3.89-7.329 7.828 5.844 2.455 13.48 2.689 17.38 8.327 4.186 6.301 0.8938 15.89-6.501 17.96-4.188 1.281-8.792 1.245-13.12 0.9099zm37.4-1.22c-5.222-13.69-10.64-27.34-15.53-41.15 3.168-0.3424 6.37-0.1513 9.554-0.2012 3.643 9.688 6.77 19.58 10.62 29.18 2.574-4.036 3.655-9.729 5.677-14.38 2.166-4.769 2.976-10.52 6.077-14.65 2.761-0.2805 3.588 10.18 6.58 4.055 1.182-2.6 3.164-5.903 1.245-0.9329-5.197 12.96-10.35 25.94-15.48 38.93-2.776 0.0486-5.553 0.0972-8.329 0.1458-0.1397-0.333-0.2794-0.666-0.419-0.9989zm-60.65-8.42c-8.135-2.051-11.17-11.39-10.43-18.95 1.05-13.45 8.698-25.25 16.26-36.01 4.656-6.221 9.937-12.12 16.03-16.95 2.89-1.992 4.706-4.697 8.514-5.31 0.3369-2.874 6.421-1.327 6.175-4.355 2.368-0.7949 6.952 1.514 6.176-2.096 3.286 0.3938 7.301 1.786 7.626-1.083 2.457 0.4256 6.031 2.957 6.375-0.0363 2.655 1.74 5.934 4.14 7.149 1.216 2.34 5.565-6.039 7.094-6.832 12.51-3.649 3.829-3.24 8.998 2.314 10.33 3.283-0.4173 6.576-3.459 9.384-5.455 3.368-1.956 6.659-7.85 9.258-8.6 0.5791 3.402 0.2578 12 1.458 12.2 0.4576-6.91-0.0959-13.9 0.7215-20.77 5.19-0.4234 9.856 3.763 14.19 6.316 3.812 4.777 10.52 4.304 14.35 8.732 2.36 4.801 8.652 9.221 8.052 14.58-6.271 1.167-12.99-0.3743-19.37-0.9138-4.385-1.207-10.54 1.719-13.33 2.157 5.935 1.289 12.38-1.672 18.58 0.2839 3.942 0.8723 10.05-0.2017 12.64 1.585-7.456 8.544-20.06 10.59-30.81 8.878-4.409-1.718-4.604 0.7212-1.575 3.413 1.626 1.469 8.834 3.099 2.795 4.005-2.303 2.281-4.425 9.075-5.659 2.284-0.207-4.096-4.769-5.775-7.014-8.819-2.755-1.27-6.637 1.052-9.824 0.6322-3.594-0.3981-4.692-9.696 0.9297-7.577 2.244 0.27 11.11-0.8924 4.398-1.281-4.558-0.3482-13-1.746-9.388 5.552 0.4928 4.538 2.783 7.837 7.43 8.333-3.763 1.886 2.191 6.215 1.785 8.89-7.116-0.6843-12.9-6.488-14.42-13.36-1.225-4.604-5.158-12.58 0.7871-15.2 2.763 0.0543 5.96-0.4286 8.561 0.2101 2.494 3.401 7.596 4.906 11.29 4.648 3.988-3.775-2.188-8.461-5.995-6.748-5.59 1.062-12.56-1.844-17.09 2.272-3.993 3.989 2.556 12.26-0.9646 14.19-6.17-0.1559-14.3-0.3632-14.05-8.465-1.309-7.494-9.956-9.352-16-6.212-2.904 0.8063-6.879 3.47-1.57 1.735 4.208-3.773 9.999 3.787 12.43 0.9969-1.234-3.393 4.235 2.676 0.2098 2.142 2.15 4.514 4.062 8.944 4.387 14.15 0.7027 2.676 1.263 8.543 0.06945 9.534-4.683-4.389-3.607-11.56-6.049-17.08-7.744-2.135 2.89 9.72-3.487 9.324-1.97 2.528-5.614 5.279-4.588-0.1135 2.24-2.349-0.1914-8.284-3.4-6.857-10.63 4.913-21.5 13.29-23.18 25.65-1.526 6.465 6.245 13.38 11.86 8.409 5.429-3.906 1.111-14.25-5.648-11.1-6.266 2.252 0.1605 13.01 4.208 6.753 2.404-5.523-7.903-3.791-2.781-0.3335-1.402 2.573-4.996-6.014 0.713-5.159 9.576 1.068 0.2341 15.16-5.32 7.384-4.257-4.567-0.2575-12.69 5.893-12.46 7.179-0.1467 11.55 8.326 8.945 14.58-1.632 5.36-7.706 8.917-13.16 7.419zm111.7-56.3c1.164-3.999-3.997 0.5401 0 0zm-9.735-1.192c5.733-2.428 3.748-12.15-2.65-11.68-10.19-0.4615-6.2 16.32 2.65 11.68zm-6.611-1.756c-2.838-3.336 0.8242-1.178 0.6768 0.5555zm3.019-3.171c-0.6223-5.435 5.627 1.69 0 0zm13.82 2.047c-3.832-4.827-7.277-11.59-14.32-11.75-2.409-0.6822-11.38 5e-3 -4.111 0.9692 5.997 0.1331 11.35 3.071 14.69 8.045 0.5504 0.8541 6.443 6.419 3.738 2.732zm-85.4-7.526c1.858-2.306 7.911-0.7076 7.356-4.198 1.24-7.594-6.53-0.8822-9.785 0.7934-2.942 2.645-2.257 7.394 2.429 3.404zm23-0.2058c1.247-3.553 4.082-8.783 3.829-11.61-5.033 0.6715-15.05-1.622-14.51 6.161-1.226 5.012 7.048 4.376 9.994 5.991zm-11.69 44.92c-1.493-1.639 1.317-5.913 1.839-7.673 6.169 0.5378 0.7622 8.273-1.839 7.673zm-0.8558-9.885c0.3222-1.696 1.279-0.3027 0 0zm3.7-1.843c1.549-1.27 2.153 1.611 0 0zm-2.117-1.078c0.993-1.28 1.339 1.478 0 0zm-3.969-9.506c0.6882-2.25 0.4958 2.186 0 0z" fill="#2e9ec9"/><path d="m159.7 205.6c-5.111-0.8256-8.306-9.531-6.623-12.49 4.015 6.975 16.38 6.122 18.42-2.032 1.18-7.918 0.5416-16.03 0.8203-24.04 0.2469-1.831-0.9524-5.123 2.061-4.158h6.715c-0.155 9.562 0.395 19.17-0.4048 28.69-1.341 7.515-7.872 13.5-15.51 13.97-1.814 0.2224-3.655 0.2623-5.472 0.0507zm-81.66-0.2773c-4.054-1.101-14.75-3.701-9.174-9.075 2.886-6.461 7.444 2.512 12.47 1.551 5.202 2.277 13.6-4.092 6.704-8.043-6.431-2.978-15.67-3.16-18.66-10.79-1.74-5.215 0.7388-11.61 5.686-14.1 2.537 5.587 5.237-0.9668 7.637-2.373 3.253-0.8116 3.82 1.738 4.568 4.391 0.4286 1.815 5.098 5.377 0.3452 3.407-5.515-3.679-15.37 3.89-7.329 7.828 5.844 2.455 13.48 2.689 17.38 8.327 4.186 6.301 0.8938 15.89-6.501 17.96-4.188 1.281-8.792 1.245-13.12 0.9099zm37.4-1.22c-5.222-13.69-10.64-27.34-15.53-41.15 3.168-0.3424 6.37-0.1513 9.554-0.2012 3.643 9.688 6.77 19.58 10.62 29.18 2.574-4.036 3.655-9.729 5.677-14.38 2.166-4.769 2.976-10.52 6.077-14.65 2.761-0.2805 3.588 10.18 6.58 4.055 1.182-2.6 3.164-5.903 1.245-0.9329-5.197 12.96-10.35 25.94-15.48 38.93-2.776 0.0486-5.553 0.0972-8.329 0.1458-0.1397-0.333-0.2794-0.666-0.419-0.9989zm-60.65-8.42c-8.135-2.051-11.17-11.39-10.43-18.95 1.05-13.45 8.698-25.25 16.26-36.01 4.656-6.221 9.937-12.12 16.03-16.95 2.89-1.992 4.706-4.697 8.514-5.31 0.3369-2.874 6.421-1.327 6.175-4.355 2.368-0.7949 6.952 1.514 6.176-2.096 3.286 0.3938 7.301 1.786 7.626-1.083 2.457 0.4256 6.031 2.957 6.375-0.0363 2.655 1.74 5.934 4.14 7.149 1.216 2.34 5.565-6.039 7.094-6.832 12.51-3.649 3.829-3.24 8.998 2.314 10.33 3.283-0.4173 6.576-3.459 9.384-5.455 3.368-1.956 6.659-7.85 9.258-8.6 0.5791 3.402 0.2578 12 1.458 12.2 0.4576-6.91-0.0959-13.9 0.7215-20.77 5.19-0.4234 9.856 3.763 14.19 6.316 3.812 4.777 10.52 4.304 14.35 8.732 2.36 4.801 8.652 9.221 8.052 14.58-6.152 1.165-12.74-0.359-19.01-0.8513-6.045 0.5597-10.68-3.71-16.53-4.529-6.486-1.665-13.32-1.751-19.94-1.108 4.556 1.81 12.32 0.6638 15.67 5.58 7.002 8.13 18.83 8.382 28.73 8.065 7.968-0.4155-2.72-3.128-5.065-4.439-6.6-2.887 4.794-0.5976 7.077-0.7406 3.354 0.1578 11.17-0.3574 5.085 3.752-8.808 6.944-20.81 7.993-31.48 5.777-2.049 1.586 3.562 5.905 6.293 6.186 1.849 1.826-4.959 1.887-4.436 5.343-3.358 5.706-2.246-5.631-6.177-6.211-2.108-1.068-3.216-4.999-5.862-4.319-4.254 0.5498-11.45 3.239-10.72-3.893-0.9005-5.369 8.898-0.9989 10.88-3.72-4.329 0.3228-15.61-3.518-12.29 4.66 0.482 4.833 2.489 8.653 7.616 9.008-4.346 1.637 2.245 6.072 1.743 8.86-7.116-0.6856-12.9-6.488-14.42-13.36-1.225-4.604-5.158-12.58 0.7871-15.2 2.763 0.0543 5.96-0.4286 8.561 0.2101 2.494 3.401 7.596 4.906 11.29 4.648 3.988-3.775-2.188-8.461-5.995-6.748-5.59 1.062-12.56-1.844-17.09 2.272-3.993 3.989 2.556 12.26-0.9646 14.19-6.17-0.1559-14.3-0.3632-14.05-8.465-1.309-7.494-9.956-9.352-16-6.212-2.904 0.8063-6.879 3.47-1.57 1.735 4.208-3.773 9.999 3.787 12.43 0.9969-1.234-3.393 4.235 2.676 0.2098 2.142 2.15 4.514 4.062 8.944 4.387 14.15 0.7027 2.676 1.263 8.543 0.06945 9.534-4.683-4.389-3.607-11.56-6.049-17.08-7.744-2.135 2.89 9.72-3.487 9.324-1.97 2.528-5.614 5.279-4.588-0.1135 2.24-2.349-0.1914-8.284-3.4-6.857-10.63 4.913-21.5 13.29-23.18 25.65-1.526 6.465 6.245 13.38 11.86 8.409 5.429-3.906 1.111-14.25-5.648-11.1-6.266 2.252 0.1605 13.01 4.208 6.753 2.404-5.523-7.903-3.791-2.781-0.3335-1.402 2.573-4.996-6.014 0.713-5.159 9.576 1.068 0.2341 15.16-5.32 7.384-4.257-4.567-0.2575-12.69 5.893-12.46 7.179-0.1467 11.55 8.326 8.945 14.58-1.632 5.36-7.706 8.917-13.16 7.419zm111.7-56.3c1.164-3.999-3.997 0.5401 0 0zm-9.735-1.192c5.733-2.428 3.748-12.15-2.65-11.68-10.19-0.4615-6.2 16.32 2.65 11.68zm-6.611-1.756c-2.838-3.336 0.8242-1.178 0.6768 0.5555zm3.019-3.171c-0.6223-5.435 5.627 1.69 0 0zm13.82 2.047c-3.832-4.827-7.277-11.59-14.32-11.75-2.409-0.6822-11.38 5e-3 -4.111 0.9692 5.997 0.1331 11.35 3.071 14.69 8.045 0.5504 0.8541 6.443 6.419 3.738 2.732zm-85.4-7.526c1.858-2.306 7.911-0.7076 7.356-4.198 1.24-7.594-6.53-0.8822-9.785 0.7934-2.942 2.645-2.257 7.394 2.429 3.404zm23-0.2058c1.247-3.553 4.082-8.783 3.829-11.61-5.033 0.6715-15.05-1.622-14.51 6.161-1.226 5.012 7.048 4.376 9.994 5.991zm38.39 51.83c-0.2061-5.504-0.0212-11.01-9e-3 -16.52 2.661 0.5352 7.796-1.589 8.628 1.187-0.6039 3.117 1.183 10.73-1.096 11.02-3.421-2.566-5.817 2.549-7.523 4.318zm-50.08-6.911c-1.493-1.639 1.317-5.913 1.839-7.673 6.169 0.5378 0.7622 8.273-1.839 7.673zm-0.8558-9.885c0.3222-1.696 1.279-0.3027 0 0zm3.7-1.843c1.549-1.27 2.153 1.611 0 0zm-2.117-1.078c0.993-1.28 1.339 1.478 0 0zm-3.969-9.506c0.6882-2.25 0.4958 2.186 0 0z" fill="#d26359"/><path d="m159.7 205.6c-5.111-0.8256-8.306-9.531-6.623-12.49 4.015 6.975 16.38 6.122 18.42-2.032 1.18-7.918 0.5416-16.03 0.8203-24.04 0.2469-1.831-0.9524-5.123 2.061-4.158h6.715c-0.155 9.562 0.395 19.17-0.4048 28.69-1.341 7.515-7.872 13.5-15.51 13.97-1.814 0.2224-3.655 0.2623-5.472 0.0507zm-81.76-0.6393c-3.755-0.919-9.096-2.601-10.84-5.83 2.144-2.26 3.861-7.881 6.952-3.649 4.494 2.928 11.08 4.209 15.75 1.064 4.566-7.173-6.763-8.963-11.57-10.39-5.228-1.605-10.14-6.326-9.061-12.23-0.1953-3.24 3.194-9.161 6.29-8.519 3.555 5.937 5.149-5.156 9.808-2.801 1.347 2.212 2.615 6.293 4.004 8.01-4.568-2.34-14.67-0.9536-11.34 6.061 4.108 3.462 10.01 3.592 14.74 6.022 7.757 3.129 8.634 15.03 1.768 19.61-4.672 3.256-11.07 3.177-16.51 2.651zm37.49-0.8578c-5.222-13.69-10.64-27.34-15.53-41.15 3.168-0.3424 6.37-0.1513 9.554-0.2012 3.643 9.688 6.77 19.58 10.62 29.18 2.574-4.036 3.655-9.729 5.677-14.38 2.166-4.769 2.976-10.52 6.077-14.65 2.761-0.2805 3.588 10.18 6.58 4.055 1.182-2.6 3.164-5.903 1.245-0.9329-5.197 12.96-10.35 25.94-15.48 38.93-2.776 0.0486-5.553 0.0972-8.329 0.1458-0.1397-0.333-0.2794-0.666-0.419-0.9989zm-61.4-8.923c-7.951-2.791-10.21-12.35-9.239-19.88 1.957-15.32 11.49-28.28 20.55-40.28 4.114-4.808 8.457-9.545 13.84-12.92 0.8224-3.318 6.262-1.992 6.735-5.12 4.893 0.3018 5.435-4.63 10.64-2.764 1.047-1.303 0.5359-3.301 3.738-1.936 2.391 1.273 4.803 0.6974 4.499-1.401 2.477 0.0681 6.033 3.283 6.749 0.1069 2.84 1.786 5.475 3.69 7.239 1.234 1.935 5.577-6.115 6.989-6.963 12.4-3.16 3.467-3.908 8.827 1.721 9.945-2.952 2.717 5.785-1.568 6.892-2.734 4.622-2.654 8.782-8.875 12.37-10.89 0.5221 3.392 0.2422 11.96 1.427 12.15 0.4576-6.91-0.0959-13.9 0.7215-20.77 5.19-0.4234 9.856 3.763 14.19 6.316 3.812 4.777 10.52 4.304 14.35 8.732 2.36 4.801 8.652 9.221 8.052 14.58-6.152 1.165-12.74-0.359-19.01-0.8513-6.045 0.5597-10.68-3.71-16.53-4.529-6.486-1.665-13.32-1.751-19.94-1.108 4.556 1.81 12.32 0.6638 15.67 5.58 7.002 8.13 18.83 8.382 28.73 8.065 7.968-0.4155-2.72-3.128-5.065-4.439-6.6-2.887 4.794-0.5976 7.077-0.7406 3.354 0.1578 11.17-0.3574 5.085 3.752-8.808 6.944-20.81 7.993-31.48 5.777-2.049 1.586 3.562 5.905 6.293 6.186 1.849 1.826-4.959 1.887-4.436 5.343-3.358 5.706-2.246-5.631-6.177-6.211-2.108-1.068-3.216-4.999-5.862-4.319-4.254 0.5498-11.45 3.239-10.72-3.893 0.2304-5.787 10.91-0.5033 14.58-4.779 4.776-7.028-6.091-7.921-10.73-6.647-5.312-0.3966-14.94-1.305-13.86 6.815-0.8109 3.755 4.662 11.55-2.429 9.082-3.123-1.371-9.883 0.5524-10.09-4.101-0.923-5.195-3.628-12.09-9.956-11.93-3.542-0.2247-13.29 2.4-12.2 4.651 5.306-3.331 9.963-1.415 15.01 0.6402 1.881-0.2484-1.124-4.082 1.917-0.5925 1.179 1.855-2.846 1.84-0.0435 4.902 3.157 4.373 3.149 10.44 3.86 15.6 1.258 4.555-1.066 5.987-2.732 1.331-2.686-4.068-0.1592-15.18-7.007-13.59-0.6819 4.3 4.732 9.284-1.59 10.22-3.624 5.005-3.029-1.364-2.084-4.14-2.057-8.101-9.451-0.9697-13.62 1.264-7.684 5.372-14.92 13.72-14.53 23.63 0.06457 6.571 8.927 10.35 13.26 5.158 5.514-5.524-2.775-15.75-8.484-9.364-5.287 5.648 6.552 11.71 6.582 3.834-0.8865-5.264-6.624-0.8018-5.211 0.6014-2.088-7.367 10.51-3.019 5.664 2.638-5.208 6.602-13.55-3.704-8.273-8.872 4.055-5.417 12.81-2.467 14.5 3.527 2.322 6.683-2.468 15.21-9.974 15.09-1.244 0.0763-2.513-2e-3 -3.711-0.3701zm112.5-55.79c1.164-3.999-3.997 0.5401 0 0zm-9.735-1.192c5.733-2.428 3.748-12.15-2.65-11.68-10.19-0.4615-6.2 16.32 2.65 11.68zm-6.611-1.756c-2.838-3.336 0.8242-1.178 0.6768 0.5555zm3.019-3.171c-0.6223-5.435 5.627 1.69 0 0zm13.82 2.047c-3.832-4.827-7.277-11.59-14.32-11.75-2.409-0.6822-11.38 5e-3 -4.111 0.9692 5.997 0.1331 11.35 3.071 14.69 8.045 0.5504 0.8541 6.443 6.419 3.738 2.732zm-85.4-7.526c1.858-2.306 7.911-0.7076 7.356-4.198 1.24-7.594-6.53-0.8822-9.785 0.7934-2.942 2.645-2.257 7.394 2.429 3.404zm23-0.2058c1.247-3.553 4.082-8.783 3.829-11.61-5.033 0.6715-15.05-1.622-14.51 6.161-1.226 5.012 7.048 4.376 9.994 5.991zm38.39 51.83c-0.2061-5.504-0.0212-11.01-9e-3 -16.52 2.661 0.5352 7.796-1.589 8.628 1.187-0.6039 3.117 1.183 10.73-1.096 11.02-3.421-2.566-5.817 2.549-7.523 4.318zm-49.95-6.842c-1.55-2.007 1.297-11.1 4.984-5.81-1.16 1.646-2.656 6.9-4.984 5.81zm28.05-3.876c-6.04-1.458-10.45-6.56-11.94-12.48-1.386-4.597-5.596-14.08 1.729-15.23 2.375 0.4684 5.794-1.255 7.619 0.5167 1.25 3.553 9.218 3.095 8.819 4.855-4.195 1.144-11.46-1.837-14.06 1.493 0.6656 3.841-0.4982 9.803 1.123 6.417 0.2628 4.516 3.906 5.066 7.132 6.627-6.563 0.1817 6.436 9.513-0.4257 7.799zm-29.03-6.078c0.3222-1.696 1.279-0.3027 0 0zm3.7-1.843c1.549-1.27 2.153 1.611 0 0zm-2.117-1.078c0.993-1.28 1.339 1.478 0 0zm-3.969-9.506c0.6882-2.25 0.4958 2.186 0 0z" fill="#ee722a"/><path d="m159.7 205.6c-5.111-0.8256-8.306-9.531-6.623-12.49 4.015 6.975 16.38 6.122 18.42-2.032 1.18-7.918 0.5416-16.03 0.8203-24.04 0.2469-1.831-0.9524-5.123 2.061-4.158h6.715c-0.155 9.562 0.395 19.17-0.4048 28.69-1.341 7.515-7.872 13.5-15.51 13.97-1.814 0.2224-3.655 0.2623-5.472 0.0507zm-81.76-0.6393c-3.755-0.919-9.096-2.601-10.84-5.83 2.144-2.26 3.861-7.881 6.952-3.649 4.494 2.928 11.08 4.209 15.75 1.064 4.479-6.6-5.796-8.989-10.52-10.02-5.478-1.404-10.7-5.924-10.31-11.99 2.64 5.12 8.702 3.09 13.15 4.495 5.908 2.21 13.81 2.966 16.3 9.797 2.792 6.794-2.309 15.09-9.605 15.79-3.57 0.6466-7.284 0.9878-10.88 0.3531zm37.49-0.8578c-5.222-13.69-10.64-27.34-15.53-41.15 3.168-0.3424 6.37-0.1513 9.554-0.2012 3.643 9.688 6.77 19.58 10.62 29.18 2.574-4.036 3.655-9.729 5.677-14.38 2.166-4.769 2.976-10.52 6.077-14.65 2.761-0.2805 3.588 10.18 6.58 4.055 1.182-2.6 3.164-5.903 1.245-0.9329-5.197 12.96-10.35 25.94-15.48 38.93-2.776 0.0486-5.553 0.0972-8.329 0.1458-0.1397-0.333-0.2794-0.666-0.419-0.9989zm-61.4-8.923c-7.951-2.791-10.21-12.35-9.239-19.88 1.975-15.33 11.48-28.34 20.6-40.31 4.834-1.593 9.854-3.843 14.68-6.024 4.976-2.264 10.6-5.064 16.08-2.797 6.381 1.318 11.15 6.046 16.95 8.634 1.602 1.459 9.006-3.877 11.7-6.502 3.004-1.448 8.866-12.27 8.267-3.953 0.1787 2.233 0.2742 9.764 1.154 8.743 0.4576-6.91-0.0959-13.9 0.7215-20.77 5.19-0.4234 9.856 3.763 14.19 6.316 3.812 4.777 10.52 4.304 14.35 8.732 2.36 4.801 8.652 9.221 8.052 14.58-6.152 1.165-12.74-0.359-19.01-0.8513-6.045 0.5597-10.68-3.71-16.53-4.529-6.486-1.665-13.32-1.751-19.94-1.108 4.556 1.81 12.32 0.6638 15.67 5.58 7.002 8.13 18.83 8.382 28.73 8.065 7.968-0.4155-2.72-3.128-5.065-4.439-6.6-2.887 4.794-0.5976 7.077-0.7406 3.354 0.1578 11.17-0.3574 5.085 3.752-8.808 6.944-20.81 7.993-31.48 5.777-2.049 1.586 3.562 5.905 6.293 6.186 1.849 1.826-4.959 1.887-4.436 5.343-3.358 5.706-2.246-5.631-6.177-6.211-2.108-1.068-3.216-4.999-5.862-4.319-4.254 0.5498-11.45 3.239-10.72-3.893 0.2304-5.787 10.91-0.5033 14.58-4.779 4.776-7.028-6.091-7.921-10.73-6.647-5.312-0.3966-14.94-1.305-13.86 6.815-0.8109 3.755 4.662 11.55-2.429 9.082-3.123-1.371-9.883 0.5524-10.09-4.101-0.923-5.195-3.628-12.09-9.956-11.93-3.96 0.1627-11.95 1.596-12.67 4.836 5.982-2.56 14.06-0.942 16.85 5.479 3.531 5.919 2.76 13.24 4.232 19.65-4.585-3.902-3.794-10.95-5.714-16.3-5.903-4.524-3.415 5.335-1.982 7.922-3.133-0.6618-6.842 7.394-6.498 1.012 3.336-4.764-3.161-10.62-7.242-5.587-8.715 4.424-16.71 11.55-19.4 21.23-2.247 5.522 0.859 13.88 7.723 13.27 6.191-0.0367 8.766-8.975 4.888-12.9-5.545-3.997-12.7 2.257-8.093 7.791 6.318 5.62 8.714-8.718 1.465-4.591-0.07393 3.022-0.8356 3.135-0.6932 0.035 5.598-7.012 10.36 7.589 1.94 7.028-7.249-0.1348-7.626-11.4-1.14-13.36 6.507-2.477 13.07 4.413 11.82 10.86-0.4193 6.975-7.445 11.8-14.16 9.783zm112.5-55.79c1.164-3.999-3.997 0.5401 0 0zm-9.735-1.192c5.733-2.428 3.748-12.15-2.65-11.68-10.19-0.4615-6.2 16.32 2.65 11.68zm-6.611-1.756c-2.838-3.336 0.8242-1.178 0.6768 0.5555zm3.019-3.171c-0.6223-5.435 5.627 1.69 0 0zm13.82 2.047c-3.832-4.827-7.277-11.59-14.32-11.75-2.409-0.6822-11.38 5e-3 -4.111 0.9692 5.997 0.1331 11.35 3.071 14.69 8.045 0.5504 0.8541 6.443 6.419 3.738 2.732zm-24.01 44.09c-0.2061-5.504-0.0212-11.01-9e-3 -16.52 2.661 0.5352 7.796-1.589 8.628 1.187-0.6039 3.117 1.183 10.73-1.096 11.02-3.421-2.566-5.817 2.549-7.523 4.318zm-21.91-10.72c-6.038-1.457-10.45-6.554-11.94-12.47-1.12-4.056-4.359-11.18-0.9492-13.7 1.819 4.557 1.057 10.55 5.282 13.58 1.363-6.435 1.011 5.873 5.683 3.372 2.867 0.5735 2.504 1.998 0.2904 2.685 0.0158 1.404 6.982 8.475 1.63 6.54z" fill="#e8492b"/><path d="m159.7 205.6c-5.111-0.8256-8.306-9.531-6.623-12.49 4.015 6.975 16.38 6.122 18.42-2.032 1.18-7.918 0.5416-16.03 0.8203-24.04 0.2469-1.831-0.9524-5.123 2.061-4.158h6.715c-0.155 9.562 0.395 19.17-0.4048 28.69-1.341 7.515-7.872 13.5-15.51 13.97-1.814 0.2224-3.655 0.2623-5.472 0.0507zm-81.76-0.6579c-3.763-0.886-9.097-2.589-10.84-5.811 2.33-2.913 4.315-7.952 7.876-3.07 4.43 2.451 10.44 3.454 14.91 0.5557 1.485 5.011-3.797 9.879-8.742 8.674-1.071-0.0656-2.144-0.1521-3.201-0.3478zm37.49-0.8392c-5.222-13.69-10.64-27.34-15.53-41.15 3.168-0.3424 6.37-0.1513 9.554-0.2012 3.643 9.688 6.77 19.58 10.62 29.18 2.574-4.036 3.655-9.729 5.677-14.38 2.166-4.769 2.976-10.52 6.077-14.65 2.761-0.2805 3.588 10.18 6.58 4.055 1.182-2.6 3.164-5.903 1.245-0.9329-5.197 12.96-10.35 25.94-15.48 38.93-2.776 0.0486-5.553 0.0972-8.329 0.1458-0.1397-0.333-0.2794-0.666-0.419-0.9989zm-61.4-8.923c-7.746-2.701-10.04-11.85-9.318-19.23 1.69-14.46 10.2-26.96 18.66-38.38 1.225-1.656 2.192-3.792 4.631-3.185 3.006 0.6673 11.93-6.018 6.428-0.8307-11.08 10.99-19.54 24.57-25.25 39.05-1.828 6.035-2.268 13.68 3.099 18.12 4.744 3.929 13 1.346 13.92-4.954 1.603-5.869-4.808-12.49-10.59-9.423-7.739 3.552 2.154 16.18 5.449 7.038 0.2465-5.817-6.784-2.149-5.241-0.217-2.088-7.367 10.51-3.019 5.664 2.638-5.208 6.602-13.55-3.704-8.273-8.872 4.055-5.417 12.81-2.467 14.5 3.527 2.322 6.683-2.468 15.21-9.974 15.09-1.244 0.0763-2.513-2e-3 -3.711-0.3702zm88.97-15.77c-0.2061-5.504-0.0212-11.01-9e-3 -16.52 2.661 0.5352 7.796-1.589 8.628 1.187-0.6039 3.117 1.183 10.73-1.096 11.02-3.421-2.566-5.817 2.549-7.523 4.318zm-21.91-10.72c-4.647-0.9654-14.95-8.576-8.052-11.93 1.233-3.594 1.262-3.148 2.228 0.1551-0.2241 3.575 9.846 2.535 4.194 5.234 0.0158 1.404 6.982 8.475 1.63 6.54zm-31.27-0.7812c-2.367-3.135-2.911-8.992-3.291-11.65 1.627 3.773 4.539 9.184 3.877 12.32zm46.01-1.306c-0.3213-4.993-3.896-7.851-7.327-11.07-1.754-2.668-5.245 0.0765-7.788-0.3096-6.34 3.203-8.325-10.25-0.876-7.371 5.004 1.069 15.68-2.737 9.016-8.462-6.118-1.196-12.67 0.1771-18.96-0.2765-6.651 1.233-4.896 9.437-3.539 14.1 0.3438 4.813-9.209 0.102-12.87 0.0903-1.595-3.327-1.629-8.157-4.386-11.25-3.845-4.912-10.51-2.722-15.5-1.369 4.852-2.983 10.25-4.954 16-5.027 8.843-0.2018 18.21 2.152 26.68-1.376 6.571-3.12 11.36-8.846 16.42-13.78 0.7104 3.523 0.2703 12.25 1.528 12.59 0.4576-6.91-0.0959-13.9 0.7215-20.77 5.19-0.4234 9.856 3.763 14.19 6.316 3.812 4.777 10.52 4.304 14.35 8.732 2.36 4.801 8.652 9.221 8.052 14.58-6.152 1.165-12.74-0.359-19.01-0.8513-6.045 0.5597-10.68-3.71-16.53-4.529-6.486-1.665-13.32-1.751-19.94-1.108 4.556 1.81 12.32 0.6638 15.67 5.58 7.002 8.13 18.83 8.382 28.73 8.065 7.968-0.4155-2.72-3.128-5.065-4.439-6.6-2.887 4.794-0.5976 7.077-0.7406 3.354 0.1578 11.17-0.3574 5.085 3.752-8.808 6.944-20.81 7.993-31.48 5.777-2.049 1.586 3.562 5.905 6.293 6.186 1.851 1.826-4.956 1.884-4.436 5.338-0.5172 0.5837-1.075 3.485-2.11 1.622zm30.69-27.22c1.164-3.999-3.997 0.5401 0 0zm-9.735-1.192c5.733-2.428 3.748-12.15-2.65-11.68-10.19-0.4615-6.2 16.32 2.65 11.68zm-6.611-1.756c-2.838-3.336 0.8242-1.178 0.6768 0.5555zm3.019-3.171c-0.6223-5.435 5.627 1.69 0 0zm13.82 2.047c-3.832-4.827-7.277-11.59-14.32-11.75-2.409-0.6822-11.38 5e-3 -4.111 0.9692 5.997 0.1331 11.35 3.071 14.69 8.045 0.5504 0.8541 6.443 6.419 3.738 2.732zm-90.03 28.25c1.979-3.751-0.05554-12.73-5.72-8.398-4.085 2.047-7.16 5.035-11.37 3.534-2.414 1.492-4.18 1.718-1.371-0.8631 5.481-5.556 12.69-9.74 20.68-9.717 4.173-1.435 7.259 4.386 2.275 4.249-0.3678 4.218 4.589 8.883-1.561 9.807-0.9186 0.2684-2.53 4.067-2.932 1.388z" fill="#5a5"/><path d="m158.8 205.3c-4.526-2.017-6.911-8.435-5.924-12.39 3.024 5.628 10.97 6.16 15.94 3.061 5.52-5.27 3.209-13.54 3.673-20.3-0.0339-4.198-0.0679-8.397-0.1018-12.6h8.731c-0.0849 9.655 0.6898 19.4-0.8167 28.97-1.781 7.938-9.434 13.47-17.44 13.36-1.353 0.02-2.723 0.0954-4.066-0.1114zm-80.83-0.4298c-3.763-0.886-9.097-2.589-10.84-5.811 2.33-2.913 4.315-7.952 7.876-3.07 4.43 2.451 10.44 3.454 14.91 0.5557 1.485 5.011-3.797 9.879-8.742 8.674-1.071-0.0656-2.144-0.1521-3.201-0.3478zm37.49-0.8392c-5.222-13.69-10.64-27.34-15.53-41.15 3.168-0.3424 6.37-0.1513 9.554-0.2012 3.643 9.688 6.77 19.58 10.62 29.18 2.574-4.036 3.655-9.729 5.677-14.38 2.166-4.769 2.976-10.52 6.077-14.65 2.761-0.2805 3.588 10.18 6.58 4.055 1.182-2.6 3.164-5.903 1.245-0.9329-5.197 12.96-10.35 25.94-15.48 38.93-2.776 0.0486-5.553 0.0972-8.329 0.1458-0.1397-0.333-0.2794-0.666-0.419-0.9989zm-61.4-8.923c-7.746-2.701-10.04-11.85-9.318-19.23 1.69-14.46 10.2-26.96 18.66-38.38 1.225-1.656 2.192-3.792 4.631-3.185 3.006 0.6673 11.93-6.018 6.428-0.8307-11.08 10.99-19.54 24.57-25.25 39.05-1.828 6.035-2.268 13.68 3.099 18.12 4.744 3.929 13 1.346 13.92-4.954 1.603-5.869-4.808-12.49-10.59-9.423-7.739 3.552 2.154 16.18 5.449 7.038 0.2465-5.817-6.784-2.149-5.241-0.217-2.088-7.367 10.51-3.019 5.664 2.638-5.208 6.602-13.55-3.704-8.273-8.872 4.055-5.417 12.81-2.467 14.5 3.527 2.322 6.683-2.468 15.21-9.974 15.09-1.244 0.0763-2.513-2e-3 -3.711-0.3702zm88.97-15.77c-0.2061-5.504-0.0212-11.01-9e-3 -16.52 2.661 0.5352 7.796-1.589 8.628 1.187-0.6039 3.117 1.183 10.73-1.096 11.02-3.421-2.566-5.817 2.549-7.523 4.318zm-21.91-10.72c-4.647-0.9654-14.95-8.576-8.052-11.93 1.233-3.594 1.262-3.148 2.228 0.1551-0.2241 3.575 9.846 2.535 4.194 5.234 0.0158 1.404 6.982 8.475 1.63 6.54zm-31.27-0.7812c-2.367-3.135-2.911-8.992-3.291-11.65 1.627 3.773 4.539 9.184 3.877 12.32zm46.01-1.306c-0.3213-4.993-3.896-7.851-7.327-11.07-1.754-2.668-5.245 0.0765-7.788-0.3096-6.34 3.203-8.325-10.25-0.876-7.371 5.004 1.069 15.68-2.737 9.016-8.462-6.118-1.196-12.67 0.1771-18.96-0.2765-6.651 1.233-4.896 9.437-3.539 14.1 0.3438 4.813-9.209 0.102-12.87 0.0903-1.595-3.327-1.629-8.157-4.386-11.25-3.845-4.912-10.51-2.722-15.5-1.369 4.852-2.983 10.25-4.954 16-5.027 8.138-0.0483 16.37 1.529 24.44-0.4293 4.519 0.4815 10.51 1.845 15.56 3.526 3.509 4.43 8.287 8.009 13.98 9.154 6.516 1.358 13.36 1.83 19.94 0.7214-1.251-2.352-9.782-3.429-10.4-5.605 5.538 1.045 11.2 1.128 16.8 1.558-3.899 6.122-11.74 8.634-18.65 9.607-4.917 1.501-12.96-1.519-15.84 0.0862 0.4959 3.974 7.274 4.194 7.215 6.527-4.231-1.135-4.201 7.222-6.809 5.802zm-58.85-3.038c1.979-3.751-0.05554-12.73-5.72-8.398-4.085 2.047-7.16 5.035-11.37 3.534-2.414 1.492-4.18 1.718-1.371-0.8631 5.481-5.556 12.69-9.74 20.68-9.717 4.173-1.435 7.259 4.386 2.275 4.249-0.3678 4.218 4.589 8.883-1.561 9.807-0.9186 0.2684-2.53 4.067-2.932 1.388zm84.79-21.58c-5.742-1.157-12.05-0.4053-17.41-2.653-2.338-2.675-9.34-0.9044-9.601-4.416-0.1053-3.907 1.149-8.568 1.241-11.61-0.5508-1.925 5.649 1.937 7.734 0.7906 2.954 0.8338 10.99 1.032 10.5 2.146-6.695-0.4898-9.144 9.597-2.953 12.15 4.673 2.461 10.64-2.427 9.169-7.524 0.9564-1.67 5.437 7.25 8.501 6.607-3.312-4.226-6.257-9.272-10.75-12.46-6.337-2.581 2.951-1.02 4.303 1.583 3.422 4.466 7.041 9.22 9.114 14.4-2.464 1.945-6.856 1.2-9.849 0.9828zm5.287-2.412c1.121-6.124-6.553 1.185 0 0zm-19.91-11.02c1.955-2.356-3.077-2.293-0.8517 0.2076-0.956 1.841 0.792 0.3503 0.8517-0.2076zm3.114-2.467c-1.151-0.4966-1.366 0.7802 0 0zm-0.0964 10.36c-2.838-3.336 0.8242-1.178 0.6768 0.5555zm-19.22-0.8538c-3.133-0.6325-14.66 0.1189-7.777-4.388 4.401-1.542 6.363-6.58 9.193-10.28 1.082 4.321 0.3544 10.16 1.597 14.92-0.8968 0.4729-2.073-0.2629-3.013-0.2544zm22.24-2.317c-0.6223-5.435 5.627 1.69 0 0zm1.257-9.814c-2.92-0.3585-5.873-0.3584-8.81-0.5203 3.576-1.959 6.544-3.753 9.231 0.6624z" fill="#576196"/><path d="m158.8 205.3c-4.442-1.642-7.236-9.377-5.732-12.12 3.201 5.709 12.12 6.068 16.64 1.931 4.513-5.834 2.28-13.66 2.781-20.44-0.0312-3.862-0.0624-7.725-0.0937-11.59h8.731c-0.0849 9.655 0.6898 19.4-0.8167 28.97-1.781 7.938-9.434 13.47-17.44 13.36-1.353 0.02-2.723 0.0954-4.066-0.1114zm-80.83-0.4298c-3.763-0.886-9.097-2.589-10.84-5.811 2.33-2.913 4.315-7.952 7.876-3.07 4.43 2.451 10.44 3.454 14.91 0.5557 1.485 5.011-3.797 9.879-8.742 8.674-1.071-0.0656-2.144-0.1521-3.201-0.3478zm37.62-1.353c-5.173-13.44-10.39-26.91-15.43-40.37 3.042-0.3783 6.151-0.0233 9.221-0.0671 3.498 9.775 6.801 19.64 10.6 29.29 3.218-4.154 4.193-10.98 6.549-16.11 2.411-3.654 2.396-12.53 6.767-12.82 0.0332 3.197 3.897 8.32 5.71 3.484-5.119 12.58-9.995 25.27-15.15 37.83h-7.725c-0.182-0.4115-0.364-0.823-0.546-1.234zm-61.53-8.41c-7.746-2.701-10.04-11.85-9.318-19.23 1.69-14.46 10.2-26.96 18.66-38.38 1.225-1.656 2.192-3.792 4.631-3.185 3.006 0.6673 11.93-6.018 6.428-0.8307-11.08 10.99-19.54 24.57-25.25 39.05-1.828 6.035-2.268 13.68 3.099 18.12 4.744 3.929 13 1.346 13.92-4.954 1.603-5.869-4.808-12.49-10.59-9.423-7.739 3.552 2.154 16.18 5.449 7.038 0.2465-5.817-6.784-2.149-5.241-0.217-2.088-7.367 10.51-3.019 5.664 2.638-5.208 6.602-13.55-3.704-8.273-8.872 4.055-5.417 12.81-2.467 14.5 3.527 2.322 6.683-2.468 15.21-9.974 15.09-1.244 0.0763-2.513-2e-3 -3.711-0.3702zm89.09-23.73c-6.7e-4 -2.79-1e-3 -5.579-2e-3 -8.369 2.734-0.0221 5.468-0.0441 8.202-0.0662v12.75c-3.185-4.089-7.296 2.293-8.197 3.718-9.5e-4 -2.678-2e-3 -5.355-3e-3 -8.033zm-22.03-2.76c-4.323-0.7864-14.68-8.395-8.371-11.42 1.989-2.191 1.203 6.891 4.616 7.696 0.3722 1.119 9.48 5.227 3.755 3.726zm-31.27-0.7812c-2.367-3.135-2.911-8.992-3.291-11.65 1.627 3.773 4.539 9.184 3.877 12.32zm30.09-1.71c-3.434-1.111-6.538-8.302-4.93-9.504-0.3968 3.852 9.332 2.34 4.434 5.373 0.4634 1.673 5.166 7.391 0.4964 4.131zm16.13 0.1423c-0.073-5.719-5.315-7.995-8.301-12.2-3.407-0.1975-7.437 1.299-11.09 1.057-0.5421-2.468-3.498-8.164 1.25-6.972 4.609-0.5144 11.22 0.641 13.68-4.22 0.512-7.484-8.468-5.333-13.17-5.142-3.75 0.4516-7.853-1.255-11.29 0.7949 3.247-3.677 10.1-5.021 15.22-2.868 7.194-0.3877 10.01 6.386 15.71 9.129 7.895 3.558 17.01 3.858 25.47 2.705-0.5311-2.107-11.62-4.089-9.482-5.339 4.98 1.019 11.86 0.3613 15.78 1.793-5.11 5.974-13.32 8.421-20.96 9.023-4.671 0.9179-10.1-1.382-14.2-0.713 1.246 3.936 4.82 5.437 8.062 6.993-4.188-1.056-4.654 7.024-6.679 5.957zm-59.06-2.776c1.979-3.751-0.05554-12.73-5.72-8.398-4.085 2.047-7.16 5.035-11.37 3.534-2.414 1.492-4.18 1.718-1.371-0.8631 5.481-5.556 12.69-9.74 20.68-9.717 4.173-1.435 7.259 4.386 2.275 4.249-0.3678 4.218 4.589 8.883-1.561 9.807-0.9186 0.2684-2.53 4.067-2.932 1.388zm23.68-8.786c-2.855-1.039-8.259 0.1594-8.069-4.132-0.8313-5.981-4.964-13.16-12.05-11.55-2.99 0.3873-9.855 2.735-3.827-0.0736 7.235-4.22 15.92-3.574 23.94-2.868 3.404 0.7334 9.974-0.91 11.6-0.2527-5.536 1.983-8.574 5.969-7.33 11.86 0.0954 3.395 4.033 9.307-2.495 7.191l-0.9776-0.0825zm2.888-9.742c0.9768-5.325-2.03 6.11 0 0zm58.1-3.069c-5.489-0.9257-11.28-0.7201-16.57-2.293-2.549-2.725-9.199-1.472-10.32-4.411 0.267-3.799 0.3302-8.493 1.545-11.49-1.916-3.148 5.462 1.732 7.447 0.3219 2.954 0.8338 10.99 1.032 10.5 2.146-6.695-0.4898-9.144 9.597-2.953 12.15 4.673 2.461 10.64-2.427 9.169-7.524 0.9564-1.67 5.437 7.25 8.501 6.607-3.312-4.226-6.257-9.272-10.75-12.46-6.337-2.581 2.951-1.02 4.303 1.583 3.422 4.466 7.041 9.22 9.114 14.4-2.509 1.967-6.947 1.188-9.981 0.9689zm5.419-2.398c1.121-6.124-6.553 1.185 0 0zm-19.91-11.02c1.955-2.356-3.077-2.293-0.8517 0.2076-0.956 1.841 0.792 0.3503 0.8517-0.2076zm3.114-2.467c-1.151-0.4966-1.366 0.7802 0 0zm-19.31 9.506c-3.133-0.6325-14.66 0.1189-7.777-4.388 4.401-1.542 6.363-6.58 9.193-10.28 1.082 4.321 0.3544 10.16 1.597 14.92-0.8968 0.4729-2.073-0.2629-3.013-0.2544zm22.48-2.47c-0.7832-4.28 4.325 1.353 0 0zm1.011-9.661c-2.92-0.3585-5.873-0.3584-8.81-0.5203 3.576-1.959 6.544-3.753 9.231 0.6624z" fill="#da252c"/><path d="m158.8 205.3c-4.442-1.642-7.236-9.377-5.732-12.12 3.201 5.709 12.12 6.068 16.64 1.931 4.513-5.834 2.28-13.66 2.781-20.44-0.0312-3.862-0.0624-7.725-0.0937-11.59h8.731c-0.0849 9.655 0.6898 19.4-0.8167 28.97-1.781 7.938-9.434 13.47-17.44 13.36-1.353 0.02-2.723 0.0954-4.066-0.1114zm-43.21-1.783c-5.173-13.44-10.39-26.91-15.43-40.37 3.042-0.3783 6.151-0.0233 9.221-0.0671 3.498 9.775 6.801 19.64 10.6 29.29 3.218-4.154 4.193-10.98 6.549-16.11 2.411-3.654 2.396-12.53 6.767-12.82 0.0332 3.197 3.897 8.32 5.71 3.484-5.119 12.58-9.995 25.27-15.15 37.83h-7.725c-0.182-0.4115-0.364-0.823-0.546-1.234zm-48.5-4.057c-0.01156-0.8897 0.8123 0.8814 0 0zm18.59-1.234c1.646-0.2624 0.02057 0.4578 0 0zm-12.97-3.529c-5.148-2.772 3.097 0.7453 0 0zm-15.33-7.16c4.84 0.7216 3.987-6.996 4.526-6.695 3.242 3.962-4.669 8.168-4.998 6.789l0.3296-0.065zm-4.8-2.673c-1.469-2.662-0.6585-5.383 0.1185-0.8945 0.3198 0.147 0.6859 2.334-0.1185 0.8945zm3.154-1.868c-1.566-2.231 3.113-5.791 0.2576-1.711-0.6848 0.3095 1.068 3.548-0.2576 1.711zm11.43-3.157c-1.88-4.239 1.512 1.413 0.5374 1.079zm76-8.46c-6.7e-4 -2.79-1e-3 -5.579-2e-3 -8.369 2.734-0.0221 5.468-0.0441 8.202-0.0662v12.75c-3.185-4.089-7.296 2.293-8.197 3.718-9.5e-4 -2.678-2e-3 -5.355-3e-3 -8.033zm-80.83 3.474c-2.391-1.665 3.509 1.541 0 0zm59.82-6.012c-4.671-2.253-9.482-7.01-8.511-12.58-0.1744 6.027 5.088 10.09 9.273 12.73l-0.7626-0.1469zm-2.197-2.713c-3.434-1.111-6.538-8.302-4.93-9.504-0.3968 3.852 9.332 2.34 4.434 5.373 0.4634 1.673 5.166 7.391 0.4964 4.131zm16.13 0.1423c-0.073-5.719-5.315-7.995-8.301-12.2-3.407-0.1975-7.437 1.299-11.09 1.057-0.5421-2.468-3.498-8.164 1.25-6.972 4.609-0.5144 11.22 0.641 13.68-4.22 0.512-7.484-8.468-5.333-13.17-5.142-3.75 0.4516-7.853-1.255-11.29 0.7949 3.247-3.677 10.1-5.021 15.22-2.868 7.194-0.3877 10.01 6.386 15.71 9.129 7.895 3.558 17.01 3.858 25.47 2.705-0.5311-2.107-11.62-4.089-9.482-5.339 4.98 1.019 11.86 0.3613 15.78 1.793-5.11 5.974-13.32 8.421-20.96 9.023-4.671 0.9179-10.1-1.382-14.2-0.713 1.246 3.936 4.82 5.437 8.062 6.993-4.188-1.056-4.654 7.024-6.679 5.957zm-47.91-1.52c-1.143-3.845 0.4632-0.879 0.2948 0.7808zm-11.14-1.239c-1.113-2.266 2.797-7.156 0.3696-2.249-0.9354 5.838 8.108-3.742 2.33-5.438-2.845-2.786-2.95 0.6902-1.894 1.705-1.175-3.075-6.085-4.435-0.4363-5.353 2.147-0.4072 8.735-2.01 2.978-2.73-3.347 0.9245-5.625 9e-3 -1.036-0.9244 3.572-1.811 7.343 4.326 2.206 3.365-0.6773 4.299 4.73 9.278-1.59 10.22-0.914 0.2634-2.519 4.049-2.927 1.406zm23.67-8.804c-2.855-1.039-8.259 0.1594-8.069-4.132-0.8683-5.435-4.17-12.45-10.78-11.62-3.191 0.0121-11.03 2.687-3.919-0.212 6.187-2.317 12.57 0.7851 17.53 4.416 3.765 2.929 7.846 4.094 8.74-1.688 1.651-2.714 5.841-5.984 8.175-5.751-5.502 2.11-8.707 5.984-7.414 11.97 0.0954 3.395 4.033 9.307-2.495 7.191l-0.9776-0.0825zm2.888-9.742c0.9768-5.325-2.03 6.11 0 0zm58.1-3.069c-5.489-0.9257-11.28-0.7201-16.57-2.293-2.549-2.725-9.199-1.472-10.32-4.411 0.267-3.799 0.3302-8.493 1.545-11.49-1.916-3.148 5.462 1.732 7.447 0.3219 2.954 0.8338 10.99 1.032 10.5 2.146-6.695-0.4898-9.144 9.597-2.953 12.15 4.673 2.461 10.64-2.427 9.169-7.524 0.9564-1.67 5.437 7.25 8.501 6.607-3.312-4.226-6.257-9.272-10.75-12.46-6.337-2.581 2.951-1.02 4.303 1.583 3.422 4.466 7.041 9.22 9.114 14.4-2.509 1.967-6.947 1.188-9.981 0.9689zm5.419-2.398c1.121-6.124-6.553 1.185 0 0zm-19.91-11.02c1.955-2.356-3.077-2.293-0.8517 0.2076-0.956 1.841 0.792 0.3503 0.8517-0.2076zm3.114-2.467c-1.151-0.4966-1.366 0.7802 0 0zm-19.31 9.506c-3.133-0.6325-14.66 0.1189-7.777-4.388 4.401-1.542 6.363-6.58 9.193-10.28 1.082 4.321 0.3544 10.16 1.597 14.92-0.8968 0.4729-2.073-0.2629-3.013-0.2544zm22.48-2.47c-0.7832-4.28 4.325 1.353 0 0zm1.011-9.661c-2.92-0.3585-5.873-0.3584-8.81-0.5203 3.576-1.959 6.544-3.753 9.231 0.6624z" fill="#2e56a4"/><path d="m158.8 205.3c-4.521-2.35-6.302-7.756-6.068-12.58 2.691 5.041 8.878 5.978 13.92 4.432 6.379-2.482 6.04-10.3 5.917-15.98-0.0343-6.03-0.0922-12.06-0.1384-18.09h8.731c-0.0849 9.655 0.6898 19.4-0.8167 28.97-1.781 7.938-9.434 13.47-17.44 13.36-1.364 0.0207-2.747 0.0932-4.101-0.1172zm-43.17-1.77c-5.175-13.44-10.4-26.92-15.43-40.38 3.042-0.3783 6.151-0.0233 9.221-0.0671 3.393 9.609 6.766 19.23 10.3 28.78 2.003 4.43 9.927 4.826 5.274 10.38-0.2439 2.758-2.501 2.553-4.69 2.447-1.56-0.3564-4.378 1.101-4.681-1.164zm-48.51-4.064c-0.01156-0.8897 0.8123 0.8814 0 0zm18.59-1.234c1.646-0.2624 0.02057 0.4578 0 0zm-12.97-3.529c-5.148-2.772 3.097 0.7453 0 0zm48.3-2.977c3.315-9.436 6.654-18.89 10.34-28.18 3.286-2.548 3.136 9.564 6.963 4.165 1.732-3.52-0.9634 6.551-2.641 3.634-5.48 2.747-5.708 9.797-7.465 15-0.0584 3.259-4.584 7.509-7.198 5.372zm-63.64-4.184c4.84 0.7216 3.987-6.996 4.526-6.695 3.242 3.962-4.669 8.168-4.998 6.789l0.3296-0.065zm-4.8-2.673c-1.469-2.662-0.6585-5.383 0.1185-0.8945 0.3198 0.147 0.6859 2.334-0.1185 0.8945zm3.154-1.868c-1.566-2.231 3.113-5.791 0.2576-1.711-0.6848 0.3095 1.068 3.548-0.2576 1.711zm11.43-3.157c-1.88-4.239 1.512 1.413 0.5374 1.079zm-4.829-4.986c-2.391-1.665 3.509 1.541 0 0zm80.83-8.62c-0.534-2.612 0.2702-3.897 3.024-3.247 1.549 0.3888 4.758-0.8966 5.178 0.6302 0.2932 2.384 0.1809 4.298-2.791 3.565-2.203-0.1726-6.417 4.451-5.411-0.0768v-0.8711zm-21.01 2.608c-4.671-2.253-9.482-7.01-8.511-12.58-0.1744 6.027 5.088 10.09 9.273 12.73l-0.7626-0.1469zm13.94-2.557c-0.0858-5.721-5.316-8.008-8.311-12.21-3.407-0.1975-7.437 1.299-11.09 1.057-0.5421-2.468-3.498-8.164 1.25-6.972 4.365-0.2542 9.105 0.0285 12.92-2.45-1.493 4.016-14.71 2.005-8.594 6.856 5.408 2.589 11.11-2.31 16.67-0.0712 7.022 0.9722 14.18 0.7413 20.99-1.316 2.431 0.0328-5.932 2.527-8.026 2.499-5.73 1.255-11.5-0.2251-17.19-0.6797 0.9221 4.108 4.719 5.72 8.059 7.293-2.686 0.6493-3.509 1.9-4.26 0.0117-4.965-0.4003 0.13 7.797-2.424 5.983zm-47.92-1.533c-1.143-3.845 0.4632-0.879 0.2948 0.7808zm-11.14-1.239c-1.113-2.266 2.797-7.156 0.3696-2.249-0.9354 5.838 8.108-3.742 2.33-5.438-2.845-2.786-2.95 0.6902-1.894 1.705-1.175-3.075-6.085-4.435-0.4363-5.353 2.147-0.4072 8.735-2.01 2.978-2.73-3.347 0.9245-5.625 9e-3 -1.036-0.9244 3.572-1.811 7.343 4.326 2.206 3.365-0.6773 4.299 4.73 9.278-1.59 10.22-0.914 0.2634-2.519 4.049-2.927 1.406zm23.67-8.804c-2.855-1.039-8.259 0.1594-8.069-4.132-0.8683-5.435-4.17-12.45-10.78-11.62-3.191 0.0121-11.03 2.687-3.919-0.212 6.187-2.317 12.57 0.7851 17.53 4.416 3.765 2.929 7.846 4.094 8.74-1.688 1.651-2.714 5.841-5.984 8.175-5.751-5.502 2.11-8.707 5.984-7.414 11.97 0.0954 3.395 4.033 9.307-2.495 7.191l-0.9776-0.0825zm2.888-9.742c0.9768-5.325-2.03 6.11 0 0zm60.14 2.736c-2.644-0.8576-10.49-3.421-9.417-4.466 4.908 1.021 11.71 0.3457 15.55 1.775-1.444 2.123-3.414 3.908-6.136 2.691zm-2.037-5.805c-5.489-0.9257-11.28-0.7201-16.57-2.293-2.549-2.725-9.199-1.472-10.32-4.411 0.267-3.799 0.3302-8.493 1.545-11.49-1.916-3.148 5.462 1.732 7.447 0.3219 2.954 0.8338 10.99 1.032 10.5 2.146-6.695-0.4898-9.144 9.597-2.953 12.15 4.673 2.461 10.64-2.427 9.169-7.524 0.9564-1.67 5.437 7.25 8.501 6.607-3.312-4.226-6.257-9.272-10.75-12.46-6.337-2.581 2.951-1.02 4.303 1.583 3.422 4.466 7.041 9.22 9.114 14.4-2.509 1.967-6.947 1.188-9.981 0.9689zm5.419-2.398c1.121-6.124-6.553 1.185 0 0zm-19.91-11.02c1.955-2.356-3.077-2.293-0.8517 0.2076-0.956 1.841 0.792 0.3503 0.8517-0.2076zm3.114-2.467c-1.151-0.4966-1.366 0.7802 0 0zm-43.38 13.51c1.346-1.532 9.856-5.147 3.723-1.973-0.7475 1.085-2.292 1.844-3.723 1.973zm7.925-0.9113c-0.3983-0.5015 10.47-7e-3 3.783 0.1806-1.263-2e-3 -2.526-0.0569-3.783-0.1806zm16.14-3.093c-3.133-0.6325-14.66 0.1189-7.777-4.388 4.401-1.542 6.363-6.58 9.193-10.28 1.082 4.321 0.3544 10.16 1.597 14.92-0.8968 0.4729-2.073-0.2629-3.013-0.2544zm22.48-2.47c-0.7832-4.28 4.325 1.353 0 0zm1.011-9.661c-2.92-0.3585-5.873-0.3584-8.81-0.5203 3.576-1.959 6.544-3.753 9.231 0.6624z" fill="#339d4a"/><path d="m158 204.8c-3.937-2.21-5.511-7.355-5.113-11.47 2.637 5.466 10.39 4.941 14.2 4.466-1.153 3.712 0.8755 9.445-5.315 7.563-1.268-0.0208-2.616 0.0596-3.774-0.5555zm-42.44-1.198c-5.175-13.44-10.4-26.92-15.43-40.38 3.042-0.3783 6.151-0.0233 9.221-0.0671 3.393 9.609 6.766 19.23 10.3 28.78 2.003 4.43 9.927 4.826 5.274 10.38-0.2439 2.758-2.501 2.553-4.69 2.447-1.56-0.3564-4.378 1.101-4.681-1.164zm-48.51-4.064c-0.01156-0.8897 0.8123 0.8814 0 0zm18.59-1.234c1.646-0.2624 0.02057 0.4578 0 0zm-12.97-3.529c-5.148-2.772 3.097 0.7453 0 0zm48.3-2.977c3.315-9.436 6.654-18.89 10.34-28.18 3.286-2.548 3.136 9.564 6.963 4.165 1.732-3.52-0.9634 6.551-2.641 3.634-5.48 2.747-5.708 9.797-7.465 15-0.0584 3.259-4.584 7.509-7.198 5.372zm58.68-1.407c0.1399-4.377-4.817-6.174-6.897-8.03-0.2817-3.262 0.7434-6.446-0.2283-9.364-0.0659-3.324-0.0248-6.648-0.0363-9.972h8.467c-0.1399 9.328 0.4111 18.71-0.595 27.99-0.0643 1.482-0.9759-0.1892-0.7101-0.622zm-122.3-2.776c4.84 0.7216 3.987-6.996 4.526-6.695 3.242 3.962-4.669 8.168-4.998 6.789l0.3296-0.065zm-4.8-2.673c-1.469-2.662-0.6585-5.383 0.1185-0.8945 0.3198 0.147 0.6859 2.334-0.1185 0.8945zm3.154-1.868c-1.566-2.231 3.113-5.791 0.2576-1.711-0.6848 0.3095 1.068 3.548-0.2576 1.711zm11.43-3.157c-1.88-4.239 1.512 1.413 0.5374 1.079zm-4.829-4.986c-2.391-1.665 3.509 1.541 0 0zm80.83-8.62c-0.534-2.612 0.2702-3.897 3.024-3.247 1.549 0.3888 4.758-0.8966 5.178 0.6302 0.2932 2.384 0.1809 4.298-2.791 3.565-2.203-0.1726-6.417 4.451-5.411-0.0768v-0.8711zm-21.01 2.608c-4.671-2.253-9.482-7.01-8.511-12.58-0.1744 6.027 5.088 10.09 9.273 12.73l-0.7626-0.1469zm13.94-2.557c-0.0858-5.721-5.316-8.008-8.311-12.21-3.407-0.1975-7.437 1.299-11.09 1.057-0.5421-2.468-3.498-8.164 1.25-6.972 4.365-0.2542 9.105 0.0285 12.92-2.45-1.493 4.016-14.71 2.005-8.594 6.856 5.408 2.589 11.11-2.31 16.67-0.0712 7.022 0.9722 14.18 0.7413 20.99-1.316 2.431 0.0328-5.932 2.527-8.026 2.499-5.73 1.255-11.5-0.2251-17.19-0.6797 0.9221 4.108 4.719 5.72 8.059 7.293-2.686 0.6493-3.509 1.9-4.26 0.0117-4.965-0.4003 0.13 7.797-2.424 5.983zm-47.92-1.533c-1.143-3.845 0.4632-0.879 0.2948 0.7808zm-11.14-1.239c-1.113-2.266 2.797-7.156 0.3696-2.249-0.9354 5.838 8.108-3.742 2.33-5.438-2.845-2.786-2.95 0.6902-1.894 1.705-1.175-3.075-6.085-4.435-0.4363-5.353 2.147-0.4072 8.735-2.01 2.978-2.73-3.347 0.9245-5.625 9e-3 -1.036-0.9244 3.572-1.811 7.343 4.326 2.206 3.365-0.6773 4.299 4.73 9.278-1.59 10.22-0.914 0.2634-2.519 4.049-2.927 1.406zm23.67-8.804c-2.855-1.039-8.259 0.1594-8.069-4.132-0.8683-5.435-4.17-12.45-10.78-11.62-3.191 0.0121-11.03 2.687-3.919-0.212 6.187-2.317 12.57 0.7851 17.53 4.416 3.765 2.929 7.846 4.094 8.74-1.688 1.651-2.714 5.841-5.984 8.175-5.751-5.502 2.11-8.707 5.984-7.414 11.97 0.0954 3.395 4.033 9.307-2.495 7.191l-0.9776-0.0825zm2.888-9.742c0.9768-5.325-2.03 6.11 0 0zm60.02 2.634c-2.241-0.8493-10.5-3.561-8.671-4.117 4.205 1.367 12.49-0.4762 14.23 2.141-1.385 1.837-3.257 3.143-5.562 1.977zm-2.85-5.958c-4.245-0.6793-9.603-0.755-13.15-1.676 4.116-1.069-3.258-5.696-0.5232-9.268-0.5299-3.263 8.509-6.537 2.689-2.997-4.906 3.517-1.483 11.7 4.303 11.42 3.485-2.025 6.051-1.182 9.076 1.22 2.564 0.8517 4.924 2.198 0.5231 1.568-0.9734-0.0746-1.945-0.1666-2.917-0.2626zm-53.83-2.126c1.346-1.532 9.856-5.147 3.723-1.973-0.7475 1.085-2.292 1.844-3.723 1.973zm7.925-0.9113c-0.3983-0.5015 10.47-7e-3 3.783 0.1806-1.263-2e-3 -2.526-0.0569-3.783-0.1806zm18.18-4.366c-0.5302-3.987-2.193-9.475-0.5597-12.77 0.4086 3.785 0.8302 10.97 0.5597 12.77zm32.86-1.513c-3.185-3.636 0.5876-2.03 0.9995 0.8476l-0.3154-0.1279zm-12.42 0.316c-0.7832-4.28 4.325 1.353 0 0zm6.419-7.357c-4.333-3.618 4.4 1.872 1.229 0.8777l-0.5696-0.397zm-8.265-3.741c0.8086-0.5851 1.198 0.9245 0 0z" fill="#ae202c"/><path d="m158 204.8c-3.937-2.21-5.511-7.355-5.113-11.47 2.637 5.466 10.39 4.941 14.2 4.466-1.153 3.712 0.8755 9.445-5.315 7.563-1.268-0.0208-2.616 0.0596-3.774-0.5555zm-42.44-1.198c-5.175-13.44-10.4-26.92-15.43-40.38 3.042-0.3783 6.151-0.0233 9.221-0.0671 3.393 9.609 6.766 19.23 10.3 28.78 2.003 4.43 9.927 4.826 5.274 10.38-0.2439 2.758-2.501 2.553-4.69 2.447-1.56-0.3564-4.378 1.101-4.681-1.164zm5.412-11.8c3.315-9.436 6.654-18.89 10.34-28.18 3.286-2.548 3.136 9.564 6.963 4.165 1.732-3.52-0.9634 6.551-2.641 3.634-5.48 2.747-5.708 9.797-7.465 15-0.0584 3.259-4.584 7.509-7.198 5.372zm58.68-1.407c0.1399-4.377-4.817-6.174-6.897-8.03-0.2817-3.262 0.7434-6.446-0.2283-9.364-0.0659-3.324-0.0248-6.648-0.0363-9.972h8.467c-0.1399 9.328 0.4111 18.71-0.595 27.99-0.0643 1.482-0.9759-0.1892-0.7101-0.622zm-36.53-24.08c-0.534-2.612 0.2702-3.897 3.024-3.247 1.549 0.3888 4.758-0.8966 5.178 0.6302 0.2932 2.384 0.1809 4.298-2.791 3.565-2.203-0.1726-6.417 4.451-5.411-0.0768v-0.8711zm-7.073 0.0504c-0.0858-5.721-5.316-8.008-8.311-12.21-3.407-0.1975-7.437 1.299-11.09 1.057-0.5421-2.468-3.498-8.164 1.25-6.972 4.365-0.2542 9.105 0.0285 12.92-2.45-1.493 4.016-14.71 2.005-8.594 6.856 5.408 2.589 11.11-2.31 16.67-0.0712 7.022 0.9722 14.18 0.7413 20.99-1.316 2.431 0.0328-5.932 2.527-8.026 2.499-5.73 1.255-11.5-0.2251-17.19-0.6797 0.9221 4.108 4.719 5.72 8.059 7.293-2.686 0.6493-3.509 1.9-4.26 0.0117-4.965-0.4003 0.13 7.797-2.424 5.983zm-32.4-13.05c-2.317-3.156 0.0403-11.2 1.766-11.51-2.649 3.998 2.085 10.76 0.1331 13.29-1.155 0.2983-1.556-0.994-1.899-1.778zm59.91-5.632c-2.241-0.8493-10.5-3.561-8.671-4.117 4.205 1.367 12.49-0.4762 14.23 2.141-1.385 1.837-3.257 3.143-5.562 1.977zm-2.85-5.958c-4.245-0.6793-9.603-0.755-13.15-1.676 4.116-1.069-3.258-5.696-0.5232-9.268-0.5299-3.263 8.509-6.537 2.689-2.997-4.906 3.517-1.483 11.7 4.303 11.42 3.485-2.025 6.051-1.182 9.076 1.22 2.564 0.8517 4.924 2.198 0.5231 1.568-0.9734-0.0746-1.945-0.1666-2.917-0.2626zm-53.83-2.126c1.346-1.532 9.856-5.147 3.723-1.973-0.7475 1.085-2.292 1.844-3.723 1.973zm7.925-0.9113c-0.3983-0.5015 10.47-7e-3 3.783 0.1806-1.263-2e-3 -2.526-0.0569-3.783-0.1806zm18.18-4.366c-0.5302-3.987-2.193-9.475-0.5597-12.77 0.4086 3.785 0.8302 10.97 0.5597 12.77zm32.86-1.513c-3.185-3.636 0.5876-2.03 0.9995 0.8476l-0.3154-0.1279zm-12.42 0.316c-0.7832-4.28 4.325 1.353 0 0zm6.419-7.357c-4.333-3.618 4.4 1.872 1.229 0.8777l-0.5696-0.397zm-8.265-3.741c0.8086-0.5851 1.198 0.9245 0 0z" fill="#303a8c"/><path d="m158 204.8c-3.937-2.21-5.511-7.355-5.113-11.47 2.637 5.466 10.39 4.941 14.2 4.466-1.153 3.712 0.8755 9.445-5.315 7.563-1.268-0.0208-2.616 0.0596-3.774-0.5555zm21.65-14.41c0.1399-4.377-4.817-6.174-6.897-8.03-0.2817-3.262 0.7434-6.446-0.2283-9.364-0.0659-3.324-0.0248-6.648-0.0363-9.972h8.467c-0.1399 9.328 0.4111 18.71-0.595 27.99-0.0643 1.482-0.9759-0.1892-0.7101-0.622zm-62.68-4.404c-1.695-4.58 0.2349-1.274 0.6595 1.293l-0.2371-0.3365zm-9.945-4.756c-1.92-6.01-4.705-11.73-6.72-17.68 4.172-1.904 8.029-0.2061 6.134 4.861 1.303 3.431 0.0759 7.084-0.1149 9.049 0.4495 0.4897 2.126 6.782 0.7006 3.775zm29.08-11.11c-3.877-0.311-4.891-10.98-2.13-4.052 0.7292 1.924 3.259 5.425 4.514 1.776-0.2906 1.067-0.7589 3.254-2.384 2.276zm-2.953-10.5c-0.9538-1.687-7.989-5.434-2.953-5.807 4.992-3.629 6.841 5.445 3.925 6.529zm-29.51-6.319c-1.31-2.3-0.9234-7.84-0.4092-2.394 0.3583 1.564 3.038 6.625 0.4092 2.394zm12-2.977c-1.269-3.119 2.504-2.154 0 0zm5.911-1.852c3.242-1.003 2.483 0.7751 0 0zm42.01-0.795c-2.241-0.8493-10.5-3.561-8.671-4.117 4.205 1.367 12.49-0.4762 14.23 2.141-1.385 1.837-3.257 3.143-5.562 1.977zm-59.1-5.508c1.817-2.468-0.4953 1.558 0 0zm56.25-0.4491c-4.245-0.6793-9.603-0.755-13.15-1.676 4.116-1.069-3.258-5.696-0.5232-9.268-0.5299-3.263 8.509-6.537 2.689-2.997-4.906 3.517-1.483 11.7 4.303 11.42 3.485-2.025 6.051-1.182 9.076 1.22 2.564 0.8517 4.924 2.198 0.5231 1.568-0.9734-0.0746-1.945-0.1666-2.917-0.2626zm-27.73-7.403c-0.5302-3.987-2.193-9.475-0.5597-12.77 0.4086 3.785 0.8302 10.97 0.5597 12.77zm32.86-1.513c-3.185-3.636 0.5876-2.03 0.9995 0.8476l-0.3154-0.1279zm-12.42 0.316c-0.7832-4.28 4.325 1.353 0 0zm6.419-7.357c-4.333-3.618 4.4 1.872 1.229 0.8777l-0.5696-0.397zm-8.265-3.741c0.8086-0.5851 1.198 0.9245 0 0z" fill="#16893b"/><path d="m158.9 205c-4.001-2.102-6.329-6.969-5.677-11.19 2.001 3.404 7.615 3.315 5.405 8.423 0.4251 1.08 3.291 3.763 0.2716 2.765zm-41.87-19.09c-1.695-4.58 0.2349-1.274 0.6595 1.293l-0.2371-0.3365zm63.43-0.7371c-0.5376-4.582-2.493-10.53-7.645-11.49-0.3955-3.551 0.8587-6.693-0.1294-10.01 0.8049-1.216 3.82-0.277 5.508-0.6325 2.855-0.8471 3.211 0.8459 2.813 3.305-0.064 7.025 0.1047 14.06-0.3965 21.07-0.0502-0.7497-0.1003-1.499-0.1504-2.249zm-73.37-4.019c-1.92-6.01-4.705-11.73-6.72-17.68 4.172-1.904 8.029-0.2061 6.134 4.861 1.303 3.431 0.0759 7.084-0.1149 9.049 0.4495 0.4897 2.126 6.782 0.7006 3.775zm29.08-11.11c-3.877-0.311-4.891-10.98-2.13-4.052 0.7292 1.924 3.259 5.425 4.514 1.776-0.2906 1.067-0.7589 3.254-2.384 2.276zm-2.953-10.5c-0.9538-1.687-7.989-5.434-2.953-5.807 4.992-3.629 6.841 5.445 3.925 6.529zm-29.51-6.319c-1.31-2.3-0.9234-7.84-0.4092-2.394 0.3583 1.564 3.038 6.625 0.4092 2.394zm12-2.977c-1.269-3.119 2.504-2.154 0 0zm5.911-1.852c3.242-1.003 2.483 0.7751 0 0zm43.26-0.7298c-7.337-2.642 4.742-0.8136 0 0zm-1.751-2.627c-1.64-1.588 6.522 0.1195 0.79 0.4745l-0.79-0.4746zm-8.171-1.141c-0.1797-0.9386 3.857 0.9451 0 0zm-50.43-1.805c1.817-2.468-0.4953 1.558 0 0zm57.7-0.4836c-3.141-0.5002-13.61-1.004-13.19-1.768 3.074-0.8056-3.663-5.065 1.562-1.585 4.367 2.488 9.026-2.406 12.64 2.813 3.49 0.7845 0.6623 0.6814-1.005 0.54zm-8.737-8.565c-0.7832-4.28 4.325 1.353 0 0z" fill="#2a2c73"/><path d="m158.9 205c-4.001-2.102-6.329-6.969-5.677-11.19 2.001 3.404 7.615 3.315 5.405 8.423 0.4251 1.08 3.291 3.763 0.2716 2.765zm21.55-19.82c-0.5376-4.582-2.493-10.53-7.645-11.49-0.3955-3.551 0.8587-6.693-0.1294-10.01 0.8049-1.216 3.82-0.277 5.508-0.6325 2.855-0.8471 3.211 0.8459 2.813 3.305-0.064 7.025 0.1047 14.06-0.3965 21.07-0.0502-0.7497-0.1003-1.499-0.1504-2.249zm-15.58-37.51c-7.337-2.642 4.742-0.8136 0 0zm-1.751-2.627c-1.64-1.588 6.522 0.1195 0.79 0.4745l-0.79-0.4746zm-8.171-1.141c-0.1797-0.9386 3.857 0.9451 0 0zm7.276-2.289c-3.141-0.5002-13.61-1.004-13.19-1.768 3.074-0.8056-3.663-5.065 1.562-1.585 4.367 2.488 9.026-2.406 12.64 2.813 3.49 0.7845 0.6623 0.6814-1.005 0.54z" fill="#0c7137"/></g></svg>
